<svg xmlns="http://www.w3.org/2000/svg" xmlns:xlink="http://www.w3.org/1999/xlink" viewBox="0 0 32.73 32.73"><defs><style>.cls-1{fill:url(#Degradado_sin_nombre_2);}.cls-2{fill:url(#Degradado_sin_nombre_2-2);}.cls-3{fill:url(#Degradado_sin_nombre_2-3);}.cls-4{fill:#3079af;}.cls-5{fill:#4c98c6;}.cls-6{fill:#76b7d8;}.cls-7{fill:#437dac;}.cls-8{fill:#8dd0e7;}.cls-9{fill:#010102;}.cls-10{fill:#204264;}.cls-11{fill:#fff;}</style><linearGradient id="Degradado_sin_nombre_2" x1="8.74" y1="27.52" x2="25.59" y2="2.86" gradientUnits="userSpaceOnUse"><stop offset="0" stop-color="#40c6f2"/><stop offset="1" stop-color="#fff"/></linearGradient><linearGradient id="Degradado_sin_nombre_2-2" x1="17.06" y1="5.59" x2="17.1" y2="22.6" xlink:href="#Degradado_sin_nombre_2"/><linearGradient id="Degradado_sin_nombre_2-3" x1="19.71" y1="21.82" x2="13.79" y2="1.67" xlink:href="#Degradado_sin_nombre_2"/></defs><g id="Capa_2" data-name="Capa 2"><g id="Capa_1-2" data-name="Capa 1"><path class="cls-1" d="M16.36,0A16.38,16.38,0,0,0,0,16.36a16.59,16.59,0,0,0,.45,3.75A.45.45,0,0,1,.7,20H.76a15.83,15.83,0,0,1-.44-3.67,16,16,0,1,1,16,16h0s0,0,0,0v.29h0A16.37,16.37,0,1,0,16.36,0Z"/><path class="cls-2" d="M23.49,7.11a.64.64,0,0,1-.16.11,8.3,8.3,0,1,1-11.59-.91s0,0,0,0a.34.34,0,0,1-.06-.15,8.51,8.51,0,1,0,13.93,6.55A8.42,8.42,0,0,0,23.49,7.11Z"/><path class="cls-3" d="M17.6,4.15a10.49,10.49,0,0,0-5.74,19.28.41.41,0,0,1,.16-.21,10.25,10.25,0,1,1,13.21-1.73l.05,0a.4.4,0,0,1,.1.17A10.48,10.48,0,0,0,17.6,4.15Z"/><path class="cls-4" d="M15.5,5.92l.15,0,.1,0c.61,0,1.21-.08,1.82-.09a7.52,7.52,0,0,1,.83.09l.1,0,.16,0,.15,0A7.61,7.61,0,0,1,21.4,7.22a7.1,7.1,0,0,1,2.24,2.93s0,0,0,0l.05.1.11.35,0,.1.06.25,0,.11,0,.19,0,.1A7.92,7.92,0,0,1,24,14l0,.1,0,.2,0,.1-.06.26,0,.1-.11.35-.05.1a7.13,7.13,0,0,1-2.57,3.2,7.69,7.69,0,0,1-2.28,1l-.11,0-.2,0-.1,0a9.05,9.05,0,0,1-2.65,0l-.1,0-.2,0-.11,0a7.19,7.19,0,0,1-3.57-2.17,7.48,7.48,0,0,1-1.28-2.06l-.05-.1-.11-.35,0-.1-.06-.26,0-.1,0-.2,0-.1a8.2,8.2,0,0,1,0-2.57l0-.1,0-.19,0-.11.06-.25,0-.1.11-.35.05-.1a7.1,7.1,0,0,1,1.86-2.64A7,7,0,0,1,15.22,6l.12,0Zm7.6,6.44.34.1A6,6,0,0,0,19.82,7a6.41,6.41,0,0,0-7.14,1.07c-1.14.94-2.24,3.48-1.95,4.64l.32-.18A9.22,9.22,0,0,0,11.19,14a5.74,5.74,0,0,0,1.74,3,5.91,5.91,0,0,0,5.39,1.51,5.8,5.8,0,0,0,3.78-2.53A5.69,5.69,0,0,0,23.1,12.36Z"/><path class="cls-5" d="M11.05,12.57l-.32.18c-.29-1.16.81-3.7,1.95-4.64A6.41,6.41,0,0,1,19.82,7a6,6,0,0,1,3.62,5.42l-.34-.1c-.05-.07-.07-.16-.14-.21a8.76,8.76,0,0,0-2.37-1.46c-.53-.21-1.09-.33-1.63-.49a9.47,9.47,0,0,0-1.07-.42,2.61,2.61,0,0,0-2,.23l-.6.34c-.54.15-1.08.28-1.6.45a7.14,7.14,0,0,0-2.51,1.51A.72.72,0,0,0,11.05,12.57Z"/><path class="cls-6" d="M11.05,12.57a.72.72,0,0,1,.14-.26A7.14,7.14,0,0,1,13.7,10.8c.52-.17,1.06-.3,1.6-.45l-.38.54a.83.83,0,0,0-.17.15,2.84,2.84,0,0,0-.07,2.78,1,1,0,0,0,.06.16,2.89,2.89,0,0,0,3.34,1.27,2.8,2.8,0,0,0,1.49-4.39c-.18-.24-.41-.44-.61-.66.54.16,1.1.28,1.63.49A8.76,8.76,0,0,1,23,12.15c.07,0,.09.14.14.21a5.69,5.69,0,0,1-1,3.58,5.8,5.8,0,0,1-3.78,2.53A5.91,5.91,0,0,1,12.93,17a5.74,5.74,0,0,1-1.74-3A9.22,9.22,0,0,1,11.05,12.57Zm6.54,5.78a4.06,4.06,0,0,0,2.8-1,8.76,8.76,0,0,0,1.06-1A5.07,5.07,0,0,0,22.72,14a.8.8,0,0,0-1-1,3.09,3.09,0,0,0-1.55,1c-.45.46-.84,1-1.29,1.43a1.9,1.9,0,0,1-1.57.56,4.79,4.79,0,0,1-1.83-.62c-.71-.4-1.39-.83-2.1-1.22a3.6,3.6,0,0,0-.91-.3c-.22-.06-.34.07-.31.3a2.38,2.38,0,0,1,.09.51,1.72,1.72,0,0,0,.36,1.39,5.45,5.45,0,0,0,2.09,1.74A8,8,0,0,0,17.59,18.35Z"/><path class="cls-7" d="M19,10.2c.2.22.43.42.61.66a2.8,2.8,0,0,1-1.49,4.39A2.89,2.89,0,0,1,14.74,14a1,1,0,0,1-.06-.16l.46-.1.09.1,0,0,.05.05a2.35,2.35,0,0,0,2.52.88,2.32,2.32,0,0,0,1.72-2.89,2.38,2.38,0,0,0-2.93-1.63,2.11,2.11,0,0,0-1.22.78l-.09.06-.38-.22.38-.54.6-.34a2.61,2.61,0,0,1,2-.23A9.47,9.47,0,0,1,19,10.2Z"/><path class="cls-8" d="M17.59,18.35a8,8,0,0,1-2.87-.53,5.45,5.45,0,0,1-2.09-1.74,1.72,1.72,0,0,1-.36-1.39,2.38,2.38,0,0,0-.09-.51c0-.23.09-.36.31-.3a3.6,3.6,0,0,1,.91.3c.71.39,1.39.82,2.1,1.22a4.79,4.79,0,0,0,1.83.62,1.9,1.9,0,0,0,1.57-.56c.45-.46.84-1,1.29-1.43a3.09,3.09,0,0,1,1.55-1,.8.8,0,0,1,1,1,5.07,5.07,0,0,1-1.27,2.3,8.76,8.76,0,0,1-1.06,1A4.06,4.06,0,0,1,17.59,18.35ZM19.93,16a2.56,2.56,0,0,0-.64-.18.91.91,0,0,0-.88.61.88.88,0,0,0,.18,1,.93.93,0,0,0,1,.27A1,1,0,0,0,20,16.07a2.36,2.36,0,0,0,.7,0,.59.59,0,0,0,.37-.71.65.65,0,0,0-.79-.49.63.63,0,0,0-.49.66A1.73,1.73,0,0,0,19.93,16Z"/><path class="cls-5" d="M14.92,10.89l.38.22a2.4,2.4,0,0,0-.16,2.61l-.46.1A2.84,2.84,0,0,1,14.75,11,.83.83,0,0,1,14.92,10.89Z"/><path class="cls-9" d="M15.39,11.05a2.11,2.11,0,0,1,1.22-.78,2.38,2.38,0,0,1,2.93,1.63,2.32,2.32,0,0,1-1.72,2.89,2.35,2.35,0,0,1-2.52-.88l-.05-.05,0,0a.71.71,0,0,1,.18-.12,1.39,1.39,0,0,0,.71-.62A1.42,1.42,0,0,0,15.39,11.05Z"/><path class="cls-10" d="M15.39,11.05a1.42,1.42,0,0,1,.73,2,1.39,1.39,0,0,1-.71.62.71.71,0,0,0-.18.12l-.09-.1a2.4,2.4,0,0,1,.16-2.61Z"/><path class="cls-10" d="M15.25,13.86l.05.05Z"/><path class="cls-8" d="M19.93,16l.06.08Z"/><circle class="cls-11" cx="19.31" cy="16.76" r="0.97"/><circle class="cls-11" cx="20.42" cy="15.49" r="0.71"/></g></g></svg>