<svg xmlns="http://www.w3.org/2000/svg" xmlns:xlink="http://www.w3.org/1999/xlink" viewBox="0 0 497.31 350.03"><defs><style>.cls-1{isolation:isolate;}.cls-2{fill:url(#Degradado_sin_nombre_3);}.cls-3{fill:url(#Degradado_sin_nombre_3-2);}.cls-4{fill:url(#Degradado_sin_nombre_3-3);}.cls-5{fill:#3079af;}.cls-6{fill:#4c98c6;}.cls-7{fill:#76b7d8;}.cls-8{fill:#437dac;}.cls-9{fill:#8dd0e7;}.cls-10{fill:#010102;}.cls-11{fill:#204264;}.cls-12{fill:url(#Degradado_sin_nombre_3-4);}.cls-13{fill:url(#Degradado_sin_nombre_3-5);}.cls-14{fill:url(#Degradado_sin_nombre_3-6);}.cls-15{fill:#626262;}.cls-16{fill:#fff;}.cls-16,.cls-17{mix-blend-mode:darken;}.cls-17{fill:#4354a4;}</style><linearGradient id="Degradado_sin_nombre_3" x1="322.98" y1="194.63" x2="461.91" y2="-8.67" gradientTransform="matrix(0.99, 0.1, -0.1, 0.99, -11.18, -5.94)" gradientUnits="userSpaceOnUse"><stop offset="0" stop-color="#40c6f2"/><stop offset="1" stop-color="#0f385c"/></linearGradient><linearGradient id="Degradado_sin_nombre_3-2" x1="391.57" y1="13.84" x2="391.86" y2="154.06" xlink:href="#Degradado_sin_nombre_3"/><linearGradient id="Degradado_sin_nombre_3-3" x1="413.41" y1="147.61" x2="364.58" y2="-18.49" xlink:href="#Degradado_sin_nombre_3"/><linearGradient id="Degradado_sin_nombre_3-4" x1="-2040.61" y1="-325.54" x2="-1960.73" y2="-442.43" gradientTransform="matrix(-1, -0.08, 0.08, -1, -1891.38, -260.81)" xlink:href="#Degradado_sin_nombre_3"/><linearGradient id="Degradado_sin_nombre_3-5" x1="-2001.17" y1="-429.49" x2="-2001.01" y2="-348.87" gradientTransform="matrix(-1, -0.08, 0.08, -1, -1891.38, -260.81)" xlink:href="#Degradado_sin_nombre_3"/><linearGradient id="Degradado_sin_nombre_3-6" x1="-1988.62" y1="-352.57" x2="-2016.69" y2="-448.07" gradientTransform="matrix(-1, -0.08, 0.08, -1, -1891.38, -260.81)" xlink:href="#Degradado_sin_nombre_3"/></defs><g class="cls-1"><g id="Capa_2" data-name="Capa 2"><g id="Capa_1-2" data-name="Capa 1"><path class="cls-2" d="M375.94.69c-74-7.46-140.27,46.67-147.73,120.68a134.19,134.19,0,0,0,.59,31.08,3.65,3.65,0,0,1,2.13-.54,3.37,3.37,0,0,1,.48.15,131.92,131.92,0,0,1-.57-30.43C238.15,49.08,303.13-4,375.68,3.32S501.3,75.6,494,148.15,421.71,273.78,349.16,266.46h-.11c0,.1.05.18,0,.28l-.23,2.36h0c74,7.45,140.27-46.69,147.73-120.69S449.94,8.14,375.94.69Z"/><path class="cls-3" d="M428.51,64.85a3.9,3.9,0,0,1-1.41.81,68.46,68.46,0,1,1-94.3-17c-.08-.13-.19-.23-.26-.36a3.24,3.24,0,0,1-.29-1.26,70.17,70.17,0,1,0,96.26,17.83Z"/><path class="cls-4" d="M382.67,35.73a86.5,86.5,0,0,0-63,153.42,3.53,3.53,0,0,1,1.41-1.67,84.48,84.48,0,1,1,109.8-3.24c.12.11.27.19.38.31a3.28,3.28,0,0,1,.68,1.43A86.42,86.42,0,0,0,382.67,35.73Z"/><path class="cls-5" d="M363.91,48.54l1.26,0,.86-.22c5,.26,10,.41,15,.82a54.74,54.74,0,0,1,6.76,1.38l.79.38,1.23.29,1.23.47a62.22,62.22,0,0,1,20.16,12.43,58.2,58.2,0,0,1,16,25.91,2.54,2.54,0,0,0,.16.38l.3.86c.2,1,.4,2,.59,3l.29.86.27,2.12c.07.29.13.58.19.88,0,.55.07,1.1.1,1.65.06.28.11.56.17.84a65.64,65.64,0,0,1-2.14,21.06l-.34.79c-.13.54-.27,1.07-.4,1.6l-.36.82-.69,2-.46.78-1.17,2.8-.47.78a58.89,58.89,0,0,1-23.77,24.13A63.65,63.65,0,0,1,380,161.9l-.9.19-1.66,0-.86.22a72.65,72.65,0,0,1-21.78-2.19l-.8-.39-1.62-.39-.84-.36A59.49,59.49,0,0,1,324,138.26a61.84,61.84,0,0,1-8.79-18l-.3-.85c-.2-1-.39-2-.59-3-.1-.28-.19-.57-.29-.85l-.27-2.12c-.06-.3-.13-.59-.19-.88,0-.55-.05-1.1-.08-1.65-.05-.28-.11-.56-.17-.85a66.18,66.18,0,0,1,2.1-21.06l.34-.79.42-1.6.36-.82.69-2,.46-.78,1.17-2.81.47-.78a59.48,59.48,0,0,1,17.44-20.09A58.3,58.3,0,0,1,361.61,49c.34-.06.67-.18,1-.27Zm57,59.09,2.75,1.12a49.74,49.74,0,0,0-25.22-47.49c-20.25-11.62-40.19-9.95-59.47,2.9-10.11,6.74-21.21,26.67-19.82,36.47L322,99.34c0,3.85-.51,7.75,0,11.53a47.59,47.59,0,0,0,11.78,26.06c11.47,12.84,25.95,18.45,43,16.86,13.37-1.24,24.46-7.39,33-17.61A46.75,46.75,0,0,0,421,107.63Z"/><path class="cls-6" d="M322,99.34l-2.77,1.29C317.8,90.83,328.9,70.9,339,64.16c19.28-12.85,39.22-14.52,59.47-2.9a49.74,49.74,0,0,1,25.22,47.49L421,107.63a6.9,6.9,0,0,0-.94-1.88c-5.47-5.41-11.32-10.41-18.24-13.91-4.17-2.12-8.66-3.61-13-5.39a83.5,83.5,0,0,0-8.41-4.33,21.22,21.22,0,0,0-16.46.31l-5.24,2.24c-4.51.79-9.06,1.4-13.51,2.4a58,58,0,0,0-21.83,10.32A7.51,7.51,0,0,0,322,99.34Z"/><path class="cls-7" d="M322,99.34a7.51,7.51,0,0,1,1.35-2,58,58,0,0,1,21.83-10.32c4.45-1,9-1.61,13.51-2.4l-3.55,4.17c-.51.34-1.19.57-1.49,1-4.67,7.11-6.22,14.63-2.91,22.75a6.93,6.93,0,0,0,.37,1.39,23.82,23.82,0,0,0,26.36,13.12c16.4-3.32,24.19-20.7,15.82-34.77a63,63,0,0,0-4.49-5.91c4.35,1.78,8.84,3.27,13,5.39,6.92,3.5,12.77,8.5,18.24,13.91a6.9,6.9,0,0,1,.94,1.88,46.75,46.75,0,0,1-11.18,28.55c-8.56,10.22-19.65,16.37-33,17.61-17.07,1.59-31.55-4-43-16.86A47.59,47.59,0,0,1,322,110.87C321.45,107.09,321.93,103.19,322,99.34Zm48.89,52.89c8.67,1.23,17.07-1.61,23.83-6.28a84.89,84.89,0,0,0,9.54-7.69c5.39-5,10-10.65,12.3-17.82a6.57,6.57,0,0,0-7.21-8.6c-5.5.58-9.66,3.74-13.62,7.1S388,126.17,384,129.53a15.55,15.55,0,0,1-13.36,3.37,39,39,0,0,1-14.5-6.66c-5.48-3.8-10.71-8-16.23-11.71a31.21,31.21,0,0,0-7.17-3.25c-1.75-.61-2.87.33-2.82,2.22,0,1.42.66,3,.29,4.24A14.4,14.4,0,0,0,332,129.43a45.36,45.36,0,0,0,15.73,16C354.88,149.62,362.87,150.89,370.85,152.23Z"/><path class="cls-8" d="M388.76,86.45a63,63,0,0,1,4.49,5.91c8.37,14.07.58,31.45-15.82,34.77A23.82,23.82,0,0,1,351.07,114a6.93,6.93,0,0,1-.37-1.39l3.86-.47.69,1,.13.3.33.47c4.72,7.11,11.24,10.4,19.92,9.33a19.13,19.13,0,0,0,16.54-22.31c-2-10.72-11.67-17.32-22.67-15.78a17.4,17.4,0,0,0-10.67,5.4l-.84.39-2.89-2.07,3.55-4.17,5.24-2.24a21.22,21.22,0,0,1,16.46-.31A83.5,83.5,0,0,1,388.76,86.45Z"/><path class="cls-9" d="M370.85,152.23c-8-1.34-16-2.61-23.11-6.78a45.36,45.36,0,0,1-15.73-16,14.4,14.4,0,0,1-1.82-11.69c.37-1.28-.26-2.82-.29-4.24,0-1.89,1.07-2.83,2.82-2.22a31.21,31.21,0,0,1,7.17,3.25c5.52,3.75,10.75,7.91,16.23,11.71a39,39,0,0,0,14.5,6.66A15.55,15.55,0,0,0,384,129.53c4-3.36,7.69-7.18,11.71-10.59s8.12-6.52,13.62-7.1a6.57,6.57,0,0,1,7.21,8.6c-2.3,7.17-6.91,12.79-12.3,17.82a84.89,84.89,0,0,1-9.54,7.69C387.92,150.62,379.52,153.46,370.85,152.23ZM392,134.72c-1.71-.7-3.38-1.84-5.14-2a7.45,7.45,0,0,0-7.71,4.27,7.37,7.37,0,0,0,.63,8.19,7.79,7.79,0,0,0,8.33,3c5-1.05,8.58-7.1,4.39-12.67,1.9.24,3.88.95,5.68.63a4.89,4.89,0,0,0,3.67-5.5,5.43,5.43,0,0,0-6.09-4.71,5.27,5.27,0,0,0-4.6,5A17.36,17.36,0,0,0,392,134.72Z"/><path class="cls-6" d="M355.1,88.84,358,90.91c-5.31,6.41-6.49,13.49-3.43,21.24l-3.86.47c-3.31-8.12-1.76-15.64,2.91-22.75C353.91,89.41,354.59,89.18,355.1,88.84Z"/><path class="cls-10" d="M358.83,90.52a17.4,17.4,0,0,1,10.67-5.4c11-1.54,20.67,5.06,22.67,15.78a19.13,19.13,0,0,1-16.54,22.31c-8.68,1.07-15.2-2.22-19.92-9.33l-.33-.47-.13-.3a5.3,5.3,0,0,1,1.5-.89,10.73,10.73,0,0,0,6.34-4.46C367,102.62,365.64,93.44,358.83,90.52Z"/><path class="cls-11" d="M358.83,90.52c6.81,2.92,8.17,12.1,4.26,17.24a10.73,10.73,0,0,1-6.34,4.46,5.3,5.3,0,0,0-1.5.89l-.69-1c-3.06-7.75-1.88-14.83,3.43-21.24Z"/><path class="cls-11" d="M355.38,113.41l.33.47Z"/><path class="cls-9" d="M366.88,128.88l.44.64Z"/><path class="cls-12" d="M71.52,349.79a77.64,77.64,0,0,0,83.35-71.28,76.81,76.81,0,0,0-.74-17.86,2.13,2.13,0,0,1-1.22.34c-.1,0-.18-.06-.28-.08a76,76,0,1,1-69.16-64.24h.06c0-.06,0-.11,0-.16l.11-1.36h0A77.56,77.56,0,0,0,71.52,349.79Z"/><path class="cls-13" d="M40.47,313.59a2.27,2.27,0,0,1,.8-.49,39.36,39.36,0,1,1,54.43,8.57c0,.07.11.13.15.2a1.86,1.86,0,0,1,.18.72,40.34,40.34,0,1,0-55.56-9Z"/><path class="cls-14" d="M67.19,329.73a49.73,49.73,0,0,0,34.23-89,2,2,0,0,1-.79,1A48.57,48.57,0,1,1,37.56,245a1.84,1.84,0,0,1-.22-.17,1.89,1.89,0,0,1-.41-.81,49.68,49.68,0,0,0,30.26,85.72Z"/><path class="cls-15" d="M124,176.48a.86.86,0,0,1-.09.39l-4.61,11.27a1.18,1.18,0,0,1-.22.33,1.76,1.76,0,0,1-.39.32,1.83,1.83,0,0,1-.46.24,1.46,1.46,0,0,1-.53.1h-5.09a2.24,2.24,0,0,1-.93-.17.58.58,0,0,1-.36-.58,1,1,0,0,1,.08-.4L116,176.87a1.72,1.72,0,0,1,.81-.84,3,3,0,0,1,1.45-.32h4.4a2.47,2.47,0,0,1,1,.18A.61.61,0,0,1,124,176.48Zm-3.38,1.24h-2l-3.88,9.41h2Zm4.59-4.73-3.41,2.12H120l2.53-2.12Z"/><path class="cls-15" d="M150.52,176.44a1.48,1.48,0,0,1-.12.55l-2.05,5a1.64,1.64,0,0,1-.5.7,1.94,1.94,0,0,1-.73.32,4,4,0,0,1-1,.1h-3.36l-2.5,6.06h-3L142,177.72h-1.16l.83-2,7.42,0a3.37,3.37,0,0,1,1,.13A.56.56,0,0,1,150.52,176.44Zm-3.47,1.28H145l-1.36,3.35h2.07Z"/><path class="cls-15" d="M174.65,175.73l-.85,2H172l-4.68,11.4h-3l4.67-11.4H167.2l.85-2Z"/><path class="cls-15" d="M194.77,175.71l-5.5,13.42h-3l5.5-13.42Z"/><path class="cls-15" d="M218.32,175.71l-.85,2-3,0-3.85,9.43h3.13l-.87,2h-4.49a2.06,2.06,0,0,1-.88-.17.54.54,0,0,1-.36-.54,1.09,1.09,0,0,1,.08-.39l4.65-11.32a1.41,1.41,0,0,1,.85-.73,3.54,3.54,0,0,1,1.35-.27Z"/><path class="cls-15" d="M241.72,175.73,239,189.13h-3.1l.52-2h-2.09l-1.06,2h-3l6.49-11.4h-1.38l.81-2Zm-3.84,5.05h0l-2.44,4.36h1.46Z"/><path class="cls-16" d="M174.68,243.39a9,9,0,0,0-1.17-.07l-3.27,0V219.44L166,230.13l-1.3,3c-1.1,2.56-2.21,5.12-3.22,7.7a3.46,3.46,0,0,1-3.52,2.55c-1.2-.06-2-.08-2.79-.08l-5,0,.32-1.06a75.47,75.47,0,0,1,5.11-12.13c1.15-2.31,2.28-4.6,3.26-7,1.82-4.39,3.7-8.77,5.6-13.19l2.13-5-2.83-.54.82-2a25.58,25.58,0,0,1,1.15-2.64,2.61,2.61,0,0,1,2-1.31c1.83,0,8.05-.05,8.05-.05h3.48L178.76,219l6.77-16.41a15.46,15.46,0,0,1,1.58-2.92,2.81,2.81,0,0,1,2-1.1c1.07-.05,5.19-.05,5.19-.05h3.12l-.2,1a9.1,9.1,0,0,1-.44,1.94l-1,2.54c-.91,2.27-1.81,4.53-2.93,6.68-3.39,6.49-6.23,13.37-9,20-1.31,3.16-2.62,6.32-4,9.46-.67,1.53-1.76,3.29-4.33,3.29Z"/><path class="cls-17" d="M171.08,242.53V217l-.34-.07-5.5,12.91c-1.53,3.58-3.12,7.13-4.54,10.75a2.71,2.71,0,0,1-3.11,2c-2-.12-4,0-6.32,0,2-6.9,5.75-12.72,8.35-19s5.38-12.63,8.14-19.1l-2.85-.54c.54-1.32,1-2.53,1.55-3.65a1.79,1.79,0,0,1,1.3-.86c3.46-.08,6.92,0,10.67,0-.2,7.63-.39,15-.58,22.29l.46.11a17.5,17.5,0,0,0,.86-1.59c2.38-5.75,4.74-11.52,7.13-17.27a14.9,14.9,0,0,1,1.49-2.75,2,2,0,0,1,1.38-.76c2.33-.08,4.67,0,7.26,0a10.89,10.89,0,0,1-.39,1.8c-1.27,3.06-2.39,6.22-3.93,9.15-5,9.57-8.69,19.69-13,29.55-.94,2.16-2.09,3-4.35,2.74A31.76,31.76,0,0,0,171.08,242.53Z"/><path class="cls-16" d="M251.9,243.45c-.75,0-1.51,0-2.27-.09-1.72-.18-3.6-.53-4.39-1.85s-.24-3.1.41-4.68c.87-2.13,1.46-3.57,2.14-5,.33-.66,1.15-1.79,2.14-1.85s2.11-.09,3.22-.09l5.3,0-2.21,5.54c-.44,1.14-.33,1.41-.31,1.45s.23.27,1.45.36l1.37,0c2.94,0,4.22-1,4.84-3.23a22.24,22.24,0,0,1,1.28-3.18l.54-1.18a5.28,5.28,0,0,0-1.28-6.42,16.67,16.67,0,0,0-3.3-2.48c-4.45-2.52-5.71-6-3.86-10.59l.76-1.76c.36-.82.71-1.63,1-2.47,1.74-4.77,5.29-7.3,10.56-7.5,1.62-.08,3.23-.09,4.85-.09l7.35,0c1.93.19,3.83.55,4.64,1.94s.22,3.23-.31,4.5l-.84,1.9c-.47,1.06-.94,2.12-1.33,3.21a3,3,0,0,1-3.09,2.21c-1-.05-3.35-.05-3.35-.05h-1.8l-.93-.24-.94-1.2s1.48-3.43,1.85-4.37.3-1.31.26-1.37-.25-.29-1.33-.38a11.45,11.45,0,0,0-1.17-.05l-1.62.05a2.42,2.42,0,0,0-2.3,1.59l-1.81,4.24a3.09,3.09,0,0,0,.52,3.47,20.85,20.85,0,0,0,2.34,2.26c.43.37.89.7,1.35,1a20.84,20.84,0,0,1,1.74,1.36c3.55,3.15,4.23,6.09,2.41,10.49-.75,1.84-3.6,8.52-3.6,8.52a8.5,8.5,0,0,1-6.56,5.37,30.54,30.54,0,0,1-4.47.48c-1.28,0-2.57,0-3.85,0Z"/><path class="cls-17" d="M274.32,211.06c.68-1.58,1.31-3,1.87-4.38.78-2,.34-2.7-1.77-2.9a21.74,21.74,0,0,0-2.91,0,3.26,3.26,0,0,0-3,2.1q-.92,2.12-1.82,4.25a3.92,3.92,0,0,0,.65,4.32,20.93,20.93,0,0,0,2.43,2.37c1,.83,2.11,1.52,3.08,2.38,3.29,2.92,3.88,5.49,2.21,9.56-1.18,2.84-2.41,5.67-3.61,8.51a7.65,7.65,0,0,1-5.94,4.86,28.82,28.82,0,0,1-4.34.48c-3.08.07-6.16,0-9.25,0-.72,0-1.46,0-2.18-.09-4.09-.41-4.84-1.62-3.3-5.38.68-1.65,1.33-3.31,2.12-4.9.29-.58.93-1.35,1.45-1.38,2.23-.16,4.48-.07,7.23-.07-.7,1.76-1.24,3.08-1.76,4.4-.83,2.12-.41,2.79,1.87,3,.4,0,.81,0,1.21,0,2.95.25,5-.78,5.86-3.83a32.8,32.8,0,0,1,1.78-4.26,6.11,6.11,0,0,0-1.47-7.34,17,17,0,0,0-3.47-2.62c-4-2.28-5.2-5.32-3.49-9.54.57-1.43,1.26-2.82,1.78-4.26,1.68-4.59,5.12-6.77,9.82-7,4-.16,8.1,0,12.16,0l.48,0c3.67.41,4.5,1.82,3.08,5.25-.72,1.72-1.56,3.39-2.19,5.14a2.23,2.23,0,0,1-2.57,1.66c-1.62-.09-3.25,0-4.87-.05A8.65,8.65,0,0,1,274.32,211.06Z"/><path class="cls-16" d="M139.26,243.31c-6.39,0-12.79-.06-19.18-.12l-.2-.92-.71.54-.62-.37.63-1.57c.25-.64.51-1.29.8-1.93l1.86-3.91c1.15-2.4,2.3-4.8,3.36-7.25,3.81-8.77,7.58-17.56,11.22-26.4a4.14,4.14,0,0,1,4.34-2.95c2.39,0,4.54.07,6.69.07l13.09,0-2.13,5a2.48,2.48,0,0,1-2.65,1.47l-5.24,0c-1.24,0-2.47,0-3.71-.06h0a2,2,0,0,0-2.27,1.51c-.7,1.86-1.5,3.69-2.36,5.66l-.73,1.71L151,214l-1,2.39a16.27,16.27,0,0,1-1.22,2.65,3.26,3.26,0,0,1-2.44,1.28c-1.13.07-2.27.09-3.41.09s-3.23,0-3.23,0a1.47,1.47,0,0,0-1.64,1l-6.36,15-.35.35c1.12.1,2.23.12,3.36.12H138a39.78,39.78,0,0,1,4.32.19l1.1.12-.92,2.29a22.32,22.32,0,0,1-1.14,2.63A2.6,2.6,0,0,1,139.26,243.31Z"/><path class="cls-17" d="M159.27,199.31c-.71,1.67-1.19,2.77-1.64,3.88s-1.21.94-2,.94c-2.92,0-5.84.08-8.76,0a2.76,2.76,0,0,0-3.1,2.05c-1,2.7-2.24,5.33-3.57,8.47l9.62.18a27.36,27.36,0,0,1-1.66,3.8,2.46,2.46,0,0,1-1.77.89c-2.19.11-4.39.09-6.57,0a2.27,2.27,0,0,0-2.44,1.55c-2.09,5-4.24,10-6.36,15a10.76,10.76,0,0,0-.34,1.44c3.81.45,7.52-.08,11.57.37a38,38,0,0,1-1.61,3.82,1.8,1.8,0,0,1-1.35.77c-6.41,0-12.81-.07-19.21-.12-.07,0-.14-.08-.45-.27.36-.9.71-1.86,1.14-2.79,1.73-3.73,3.59-7.41,5.23-11.18,3.81-8.78,7.58-17.57,11.22-26.42a3.4,3.4,0,0,1,3.8-2.44c5,.13,10.06.05,15.09.05Z"/><path class="cls-16" d="M216.45,243.29l-.63-.29-.6-.36-.16-.87c.48-1.36.69-1.93.92-2.48l1.86-4.41c2.12-5,4.24-10.06,6.44-15.06,1.66-3.79,3.38-7.57,5.1-11.34l3.67-8.1a2.78,2.78,0,0,1,2.72-1.92l18.51.07.32,1,.65-.6.74.35-2,4.32a2.64,2.64,0,0,1-2.81,1.42l-5,0c-1.19,0-3.58,0-3.58,0a1.72,1.72,0,0,0-1.94,1.28c-.76,1.95-1.58,3.87-2.46,5.92l-.68,1.61,9.53.25-1,2.41a14,14,0,0,1-1.23,2.64,3.27,3.27,0,0,1-2.52,1.14c-1.05.07-2.12.11-3.18.11-.85,0-1.69,0-2.53-.11h-.09c-1.52,0-2.09.5-2.65,1.91-1.32,3.28-2.72,6.52-4.12,9.76l-1.3,3c-.26.61-.55,1.2-.88,1.88,1,.09,1.93.12,2.91.12l3.8,0a32.16,32.16,0,0,1,4.13.23l1.07.15-.83,2.12a19.45,19.45,0,0,1-1.11,2.58,2.86,2.86,0,0,1-2.2,1.39l-6.26,0Z"/><path class="cls-17" d="M215.85,242.06c.3-.83.56-1.66.9-2.45,2.75-6.49,5.45-13,8.29-19.46s5.87-13,8.77-19.43a2,2,0,0,1,2-1.43c6.16,0,12.32,0,18.48.07.14,0,.29.13.61.28l-1.61,3.58c-.41.93-1.23.93-2.05.93-2.84,0-5.68.06-8.52,0a2.5,2.5,0,0,0-2.75,1.81c-1.08,2.77-2.29,5.49-3.61,8.63l9.54.25a26.41,26.41,0,0,1-1.67,3.8,2.59,2.59,0,0,1-1.86.76,37.25,37.25,0,0,1-5.59,0c-2-.19-2.9.69-3.6,2.43-1.71,4.29-3.58,8.51-5.4,12.76-.38.88-.83,1.73-1.38,2.87,3.85.63,7.8-.09,12,.46a34.34,34.34,0,0,1-1.51,3.62,2,2,0,0,1-1.48,1c-6.24.05-12.48,0-18.72,0C216.47,242.46,216.27,242.27,215.85,242.06Z"/><path class="cls-16" d="M299.94,243.43q-3.3,0-6.58-.09c-2.29-.07-4-.34-4.73-1.51s-.36-2.77.54-5c1-2.56,1.79-4.4,2.43-6.26a2.88,2.88,0,0,1,2.62-2.2c1,0,2-.05,3-.05l5,0-.17,1a10,10,0,0,1-.41,2.05c-.29.76-1.69,4-1.69,4a2.24,2.24,0,0,0-.2,1.56c.17.3.7.54,1.51.68a5.81,5.81,0,0,0,1,.09,4.58,4.58,0,0,0,4.33-2.93q6.12-14.25,12.21-28.52a13.27,13.27,0,0,0,.45-1.31h-6.87l1-2.48a23.49,23.49,0,0,1,1.15-2.67,2.91,2.91,0,0,1,2.21-1.36l4.63,0,9.24.05.26,1,.53-.65.68.36-.37.67L322.18,222c-2.16,5-4.32,10-6.31,15a9.17,9.17,0,0,1-9.1,6.35C304.49,243.4,302.21,243.43,299.94,243.43Z"/><path class="cls-17" d="M320.4,204.19h-6.78a36.85,36.85,0,0,1,1.62-3.92,2,2,0,0,1,1.48-.93c4.61-.05,9.23,0,13.85,0,.14,0,.27.14.35.18-2.43,5.64-4.87,11.25-7.27,16.89-2.89,6.74-5.88,13.45-8.56,20.27a8.34,8.34,0,0,1-8.33,5.81c-4.46.08-8.92.11-13.38,0s-5.14-1.16-3.44-5.34c.85-2.09,1.72-4.18,2.45-6.31a2.05,2.05,0,0,1,1.87-1.62c2.24-.1,4.48,0,7,0a11.84,11.84,0,0,1-.37,1.89c-.52,1.36-1.14,2.68-1.68,4-.81,2-.22,3,1.95,3.37a5.48,5.48,0,0,0,6.23-3.33q6.13-14.3,12.23-28.6C319.84,206,320,205.38,320.4,204.19Z"/><path class="cls-16" d="M337.22,243.31l-.64-.31-.59-.35-.16-.85c.42-1.25.6-1.77.82-2.28l4.79-11.21c3.84-9,7.69-18,11.48-27.07.83-2,2-2.84,3.89-2.84,1.28.08,2,.09,2.7.09l5.11,0-.48,1.15c-2.83,6.85-5.7,13.53-8.57,20.22-2.42,5.62-4.83,11.23-7.23,17h11.73l-1,2.51a21.68,21.68,0,0,1-1.14,2.66,3,3,0,0,1-2.23,1.37l-6.09,0Z"/><path class="cls-17" d="M336.62,242.08c.27-.76.48-1.51.79-2.23,5.44-12.76,10.93-25.49,16.28-38.29.76-1.83,1.74-2.47,3.63-2.31s3.69,0,6.05,0c-5.36,13-10.88,25.36-16.28,38.34h11.74a36.86,36.86,0,0,1-1.63,3.94,2.09,2.09,0,0,1-1.5.94c-6.08.05-12.17,0-18.25,0C337.24,242.47,337,242.28,336.62,242.08Z"/><path class="cls-16" d="M92.92,243.26l-.33-1-.73.56-.66-.32.24-.7c.37-1.14.54-1.68.76-2.21l5-11.61q5.73-13.42,11.42-26.88a3.69,3.69,0,0,1,3.62-2.7c1.18.07,1.91.09,2.67.09l5.22,0-.47,1.15c-2.62,6.42-5.31,12.68-8,18.93-2.6,6-5.19,12.08-7.72,18.27H115.6l-1,2.52a19.85,19.85,0,0,1-1.17,2.64,2.87,2.87,0,0,1-2.25,1.31h-4.93Z"/><path class="cls-17" d="M102.65,237.65h11.71a38.39,38.39,0,0,1-1.67,3.92,2.07,2.07,0,0,1-1.52.9c-6.09,0-12.17,0-18.25,0-.14,0-.29-.14-.69-.33.23-.7.44-1.45.74-2.15,5.46-12.83,11-25.64,16.37-38.49.67-1.59,1.48-2.31,3.24-2.18s3.84,0,6.26,0C113.54,212.31,107.93,224.65,102.65,237.65Z"/><path class="cls-16" d="M196.65,243.34l-5.08,0L207.93,205h-7l1-2.47a20.21,20.21,0,0,1,1.15-2.66,2.9,2.9,0,0,1,2.23-1.35l21.16.08.77.36.28,1a8.9,8.9,0,0,0-1,1.9c-.63,2.79-2.6,3.17-4.63,3.17l-3-.08c-.89,0-.89,0-1.77,2.14l-4.6,10.76c-3.27,7.66-6.55,15.31-9.78,23a3.6,3.6,0,0,1-3.54,2.58S197.39,243.34,196.65,243.34Z"/><path class="cls-17" d="M192.84,242.54c2.8-6.58,5.49-12.91,8.19-19.23s5.32-12.49,8.16-19.14h-7a39.57,39.57,0,0,1,1.62-3.88,2,2,0,0,1,1.5-.93c7.05,0,14.1,0,21.16.08.07,0,.14.07.3.15a10,10,0,0,0-1,2.08c-.5,2.22-1.92,2.55-4,2.53-4.83,0-3.93-.89-5.95,3.85-4.62,10.82-9.28,21.61-13.84,32.45-.63,1.51-1.44,2.16-3.08,2.06C197,242.45,195,242.54,192.84,242.54Z"/><path class="cls-16" d="M362.45,243.37s1.35-3.15,1.56-3.59a4.59,4.59,0,0,1,4.15-2.92c1.19.1,1.76.12,2.36.12l4.6-.06-1,2.42A19.88,19.88,0,0,1,373,242a2.91,2.91,0,0,1-2.19,1.34c-1,0-2,.07-3.09.07Z"/><path class="cls-17" d="M363.72,242.54c.46-1.06.72-1.74,1-2.38.81-1.59,1.89-2.66,3.93-2.44a48.86,48.86,0,0,0,5.19,0,36.14,36.14,0,0,1-1.61,3.82,2.08,2.08,0,0,1-1.5.92C368.53,242.6,366.28,242.54,363.72,242.54Z"/><path class="cls-16" d="M319.23,243.39l1-2.5a27.47,27.47,0,0,1,1.18-2.74A2.65,2.65,0,0,1,323.5,237c.92,0,4.43,0,4.43,0h2.57v.83l-.84.85.77.33-.62,1.51c-.89,2.18-1.19,2.93-3.29,2.93h-7.29Z"/><path class="cls-17" d="M329.67,237.78a3.31,3.31,0,0,1,0,.86c-2,4.71-1,3.81-5.61,3.91-1,0-2.07,0-3.58,0,.65-1.61,1.07-2.87,1.68-4a1.88,1.88,0,0,1,1.38-.73C325.53,237.73,327.54,237.78,329.67,237.78Z"/></g></g></g></svg>