<svg xmlns="http://www.w3.org/2000/svg" xmlns:xlink="http://www.w3.org/1999/xlink" viewBox="0 0 621.96 479.4"><defs><style>.cls-1{isolation:isolate;}.cls-2{fill:url(#Degradado_sin_nombre_2);}.cls-3{fill:url(#Degradado_sin_nombre_2-2);}.cls-4{fill:url(#Degradado_sin_nombre_2-3);}.cls-5{fill:#3079af;}.cls-6{fill:#4c98c6;}.cls-7{fill:#76b7d8;}.cls-8{fill:#437dac;}.cls-9{fill:#8dd0e7;}.cls-10{fill:#010102;}.cls-11{fill:#204264;}.cls-12{fill:url(#Degradado_sin_nombre_2-4);}.cls-13{fill:url(#Degradado_sin_nombre_2-5);}.cls-14{fill:url(#Degradado_sin_nombre_2-6);}.cls-15,.cls-16{fill:#fff;}.cls-16{mix-blend-mode:darken;}</style><linearGradient id="Degradado_sin_nombre_2" x1="364.73" y1="295.11" x2="545.46" y2="30.64" gradientUnits="userSpaceOnUse"><stop offset="0" stop-color="#40c6f2"/><stop offset="1" stop-color="#fff"/></linearGradient><linearGradient id="Degradado_sin_nombre_2-2" x1="453.96" y1="59.93" x2="454.33" y2="242.34" xlink:href="#Degradado_sin_nombre_2"/><linearGradient id="Degradado_sin_nombre_2-3" x1="482.37" y1="233.95" x2="418.85" y2="17.87" xlink:href="#Degradado_sin_nombre_2"/><linearGradient id="Degradado_sin_nombre_2-4" x1="-2106.71" y1="-276.89" x2="-1996.42" y2="-438.28" gradientTransform="matrix(-1, -0.08, 0.08, -1, -1916.26, -136.61)" xlink:href="#Degradado_sin_nombre_2"/><linearGradient id="Degradado_sin_nombre_2-5" x1="-2052.26" y1="-420.41" x2="-2052.03" y2="-309.1" gradientTransform="matrix(-1, -0.08, 0.08, -1, -1916.26, -136.61)" xlink:href="#Degradado_sin_nombre_2"/><linearGradient id="Degradado_sin_nombre_2-6" x1="-2034.92" y1="-314.22" x2="-2073.68" y2="-446.08" gradientTransform="matrix(-1, -0.08, 0.08, -1, -1916.26, -136.61)" xlink:href="#Degradado_sin_nombre_2"/></defs><g class="cls-1"><g id="Capa_2" data-name="Capa 2"><g id="Capa_1-2" data-name="Capa 1"><path class="cls-2" d="M446.49,0C349.73,0,271,78.71,271,175.47a174.92,174.92,0,0,0,4.82,40.16,4.69,4.69,0,0,1,2.69-1,3.48,3.48,0,0,1,.64.14,171.75,171.75,0,0,1-4.71-39.32c0-94.86,77.18-172,172-172s172,77.17,172,172-77.17,172-172,172h-.14c0,.12.08.23.08.36v3.08h.06C543.24,351,622,272.23,622,175.47S543.24,0,446.49,0Z"/><path class="cls-3" d="M522.9,76.19a5,5,0,0,1-1.72,1.23A89.06,89.06,0,1,1,396.9,67.69c-.12-.15-.28-.27-.38-.42a4.15,4.15,0,0,1-.54-1.6A91.28,91.28,0,1,0,522.9,76.19Z"/><path class="cls-4" d="M459.77,44.48a112.53,112.53,0,0,0-61.54,206.8,4.58,4.58,0,0,1,1.62-2.34c-30-19.66-50.08-53.35-50.08-91.85a110,110,0,1,1,191.77,73.32c.17.13.38.21.53.35a4.34,4.34,0,0,1,1.07,1.77,112.42,112.42,0,0,0-83.37-188Z"/><path class="cls-5" d="M437.16,63.51l1.63-.22,1.08-.39c6.52-.32,13-.78,19.56-.9a72.85,72.85,0,0,1,8.92.9l1.08.39,1.63.22,1.65.44a81.08,81.08,0,0,1,27.72,13.46,75.8,75.8,0,0,1,24.07,31.45,4.45,4.45,0,0,0,.26.48l.51,1.07c.38,1.26.76,2.52,1.15,3.78l.48,1.07.63,2.71.36,1.11c.12.71.23,1.42.35,2.12l.32,1.07a85.4,85.4,0,0,1,0,27.54l-.34,1.07c-.1.71-.21,1.42-.31,2.13l-.36,1.11-.63,2.7-.48,1.07c-.39,1.27-.77,2.53-1.15,3.79l-.51,1.07a76.65,76.65,0,0,1-27.63,34.33,82.29,82.29,0,0,1-24.42,11.06l-1.14.36-2.14.29-1.08.4a95.07,95.07,0,0,1-28.48,0l-1.08-.4-2.15-.29-1.13-.36c-15.06-4.12-28-11.67-38.33-23.29a80.49,80.49,0,0,1-13.72-22.1l-.51-1.07c-.38-1.26-.76-2.52-1.15-3.79-.16-.35-.32-.71-.49-1.07-.21-.9-.41-1.8-.62-2.7l-.36-1.12c-.11-.7-.21-1.41-.31-2.12-.12-.36-.23-.71-.34-1.07a85.68,85.68,0,0,1,0-27.54c.1-.36.21-.71.32-1.07.12-.7.23-1.41.35-2.12l.36-1.11c.21-.9.41-1.8.62-2.71l.49-1.07c.39-1.26.77-2.52,1.15-3.78l.51-1.07a77.23,77.23,0,0,1,20-28.29,76,76,0,0,1,30.83-16.63,13,13,0,0,0,1.27-.47Zm81.53,69,3.71,1.09a64.71,64.71,0,0,0-38.85-58.18C455.83,63.07,430.24,67.82,407,87c-12.2,10-24,37.29-20.89,49.8l3.41-2c.46,5,.35,10.09,1.5,14.92a61.83,61.83,0,0,0,18.64,32.19c16.53,15.13,36,20.49,57.88,16.22,17.15-3.35,30.7-12.76,40.45-27.11A60.78,60.78,0,0,0,518.69,132.55Z"/><path class="cls-6" d="M389.48,134.74l-3.41,2C383,124.26,394.76,97,407,87c23.28-19.15,48.87-23.9,76.59-11.51a64.71,64.71,0,0,1,38.85,58.18l-3.71-1.09a8.83,8.83,0,0,0-1.46-2.31c-7.79-6.28-16-12-25.42-15.63-5.67-2.19-11.68-3.54-17.54-5.27-3.81-1.53-7.52-3.43-11.45-4.51a27.57,27.57,0,0,0-21.27,2.55L435.06,111c-5.73,1.61-11.54,3-17.18,4.87A75.54,75.54,0,0,0,391,132,9.58,9.58,0,0,0,389.48,134.74Z"/><path class="cls-7" d="M389.48,134.74A9.58,9.58,0,0,1,391,132a75.54,75.54,0,0,1,26.9-16.2c5.64-1.88,11.45-3.26,17.18-4.87L431,116.82c-.61.51-1.46.89-1.8,1.53-5.11,9.81-6.14,19.74-.8,29.83a9.78,9.78,0,0,0,.66,1.74,31,31,0,0,0,35.84,13.55c20.79-6.43,28.61-29.95,15.94-47.06a81.12,81.12,0,0,0-6.58-7.07c5.86,1.73,11.87,3.08,17.54,5.27,9.41,3.64,17.63,9.35,25.42,15.63a8.83,8.83,0,0,1,1.46,2.31A60.78,60.78,0,0,1,508,171c-9.75,14.35-23.3,23.76-40.45,27.11-21.88,4.27-41.35-1.09-57.88-16.22A61.83,61.83,0,0,1,391,149.66C389.83,144.83,389.94,139.72,389.48,134.74Zm70.18,62.07c11.39.47,21.89-4.3,30-11.23A108.93,108.93,0,0,0,501,174.39c6.32-7.22,11.55-15.09,13.6-24.67,1.11-5.17-2.86-11.79-10.46-10.2-7,1.47-12,6.1-16.7,11s-9,10.36-13.77,15.23a20.27,20.27,0,0,1-16.85,6.11c-7-.68-13.53-3.35-19.64-6.73-7.59-4.21-14.91-8.91-22.54-13a40.15,40.15,0,0,0-9.7-3.26c-2.34-.57-3.67.79-3.37,3.23.24,1.84,1.24,3.75.94,5.46a18.74,18.74,0,0,0,3.87,14.89c6,7.87,13.25,14.47,22.46,18.68C438.65,195.52,449.16,196.12,459.66,196.81Z"/><path class="cls-8" d="M474.27,109.34a81.12,81.12,0,0,1,6.58,7.07c12.67,17.11,4.85,40.63-15.94,47.06a31,31,0,0,1-35.84-13.55,9.78,9.78,0,0,1-.66-1.74l4.94-1.11,1,1.14.21.38.48.56c7,8.6,15.92,12,27,9.48a24.88,24.88,0,0,0,18.5-31c-4-13.62-17.36-20.9-31.4-17.47a22.71,22.71,0,0,0-13.11,8.37l-1,.62-4-2.3,4.05-5.86,6.49-3.58a27.57,27.57,0,0,1,21.27-2.55C466.75,105.91,470.46,107.81,474.27,109.34Z"/><path class="cls-9" d="M459.66,196.81c-10.5-.69-21-1.29-30.79-5.76-9.21-4.21-16.5-10.81-22.46-18.68a18.74,18.74,0,0,1-3.87-14.89c.3-1.71-.7-3.62-.94-5.46-.3-2.44,1-3.8,3.37-3.23a40.15,40.15,0,0,1,9.7,3.26c7.63,4.14,14.95,8.84,22.54,13,6.11,3.38,12.62,6.05,19.64,6.73a20.27,20.27,0,0,0,16.85-6.11c4.8-4.87,9-10.3,13.77-15.23s9.67-9.5,16.7-11c7.6-1.59,11.57,5,10.46,10.2-2,9.58-7.28,17.45-13.6,24.67a108.93,108.93,0,0,1-11.34,11.19C481.55,192.51,471.05,197.28,459.66,196.81Zm25.1-25.42c-2.31-.69-4.62-1.93-6.93-1.94a9.68,9.68,0,0,0-9.41,6.53,9.57,9.57,0,0,0,1.88,10.52c3.07,3.36,7,4.14,11.18,2.83,6.39-2,10.18-10.3,4-17,2.49.07,5.15.73,7.42.08,3.21-.91,4.9-4.83,4.05-7.6-1.25-4.05-4.44-6-8.5-5.3a6.84,6.84,0,0,0-5.3,7.12C483.34,168.27,484.21,169.82,484.76,171.39Z"/><path class="cls-6" d="M431,116.82l4,2.3c-6,9-6.64,18.31-1.66,27.94l-4.94,1.12c-5.34-10.09-4.31-20,.8-29.83C429.55,117.71,430.4,117.33,431,116.82Z"/><path class="cls-10" d="M436.05,118.5a22.71,22.71,0,0,1,13.11-8.37c14-3.43,27.42,3.85,31.4,17.47a24.88,24.88,0,0,1-18.5,31c-11.08,2.52-20-.88-27-9.48l-.48-.56-.21-.38a7,7,0,0,1,1.83-1.35c3.52-1.12,5.84-3.67,7.62-6.59C448.2,133.1,445.26,121.4,436.05,118.5Z"/><path class="cls-11" d="M436.05,118.5c9.21,2.9,12.15,14.6,7.77,21.77-1.78,2.92-4.1,5.47-7.62,6.59a7,7,0,0,0-1.83,1.35l-1-1.14c-5-9.64-4.37-18.95,1.66-27.95Z"/><path class="cls-11" d="M434.58,148.59l.48.56Z"/><path class="cls-9" d="M484.74,171.37l.57.83Z"/><path class="cls-12" d="M98.75,479.07A106.71,106.71,0,0,0,212.82,356a2.92,2.92,0,0,1-1.69.46,2.38,2.38,0,0,1-.38-.11,104.93,104.93,0,1,1-95.5-88.69h.09c0-.08,0-.15,0-.22l.14-1.88h0A107.08,107.08,0,0,0,98.75,479.07Z"/><path class="cls-13" d="M55.88,429.09a3.15,3.15,0,0,1,1.11-.67,54.34,54.34,0,1,1,75.14,11.83,1.78,1.78,0,0,1,.21.27,2.54,2.54,0,0,1,.25,1,55.71,55.71,0,1,0-76.71-12.43Z"/><path class="cls-14" d="M92.78,451.38A68.67,68.67,0,0,0,140,328.49a2.78,2.78,0,0,1-1.09,1.35,67.07,67.07,0,1,1-87.09,4.54c-.1-.09-.22-.15-.3-.24A2.59,2.59,0,0,1,51,333,68.6,68.6,0,0,0,92.78,451.38Z"/><path class="cls-15" d="M173.66,242.07a1.25,1.25,0,0,1-.11.5L167.63,257a1.29,1.29,0,0,1-.28.44,2.48,2.48,0,0,1-.49.41,3.88,3.88,0,0,1-.61.31,2,2,0,0,1-.68.12h-6.52a2.8,2.8,0,0,1-1.2-.22.75.75,0,0,1-.47-.73,1.33,1.33,0,0,1,.11-.53l5.85-14.25a2.23,2.23,0,0,1,1-1.08,4,4,0,0,1,1.85-.4h5.64a3,3,0,0,1,1.26.23A.77.77,0,0,1,173.66,242.07Zm-4.33,1.59h-2.58l-5,12.07h2.57Zm5.89-6.08-4.38,2.73h-2.37l3.24-2.73Z"/><path class="cls-15" d="M207.67,242a1.66,1.66,0,0,1-.17.7l-2.61,6.37a2,2,0,0,1-.65.89,2.6,2.6,0,0,1-.94.42,5.52,5.52,0,0,1-1.2.13h-4.32l-3.21,7.77h-3.8l6-14.64h-1.51l1.09-2.57,9.51,0a4.34,4.34,0,0,1,1.27.17A.7.7,0,0,1,207.67,242Zm-4.46,1.64h-2.65l-1.74,4.3h2.65Z"/><path class="cls-15" d="M238.62,241.11l-1.08,2.56h-2.37l-6,14.63h-3.8l6-14.63h-2.31l1.09-2.56Z"/><path class="cls-15" d="M264.44,241.09l-7.08,17.21h-3.83l7.07-17.21Z"/><path class="cls-15" d="M294.65,241.09l-1.07,2.57-3.8,0-4.95,12.1h4l-1.12,2.57H282a2.64,2.64,0,0,1-1.16-.22.71.71,0,0,1-.45-.69,1.31,1.31,0,0,1,.1-.5l6-14.53a1.76,1.76,0,0,1,1.09-.93,4.59,4.59,0,0,1,1.73-.34Z"/><path class="cls-15" d="M324.69,241.11l-3.55,17.19h-4l.66-2.54h-2.68l-1.37,2.54h-3.86l8.32-14.63h-1.78l1.06-2.56Zm-4.91,6.48h-.07l-3.14,5.6h1.88Z"/><path class="cls-16" d="M234.05,326.83V294l-.44-.09-7.06,16.56c-2,4.6-4,9.15-5.82,13.8a3.48,3.48,0,0,1-4,2.57c-2.57-.16-5.16,0-8.11,0,2.62-8.86,7.38-16.32,10.72-24.4s6.89-16.21,10.44-24.51l-3.66-.69c.7-1.69,1.23-3.25,2-4.69a2.34,2.34,0,0,1,1.67-1.1c4.44-.09,8.88-.05,13.69-.05-.26,9.8-.5,19.2-.74,28.6l.59.15c.37-.68.8-1.33,1.1-2,3.06-7.39,6.08-14.79,9.15-22.17a18.84,18.84,0,0,1,1.92-3.53,2.58,2.58,0,0,1,1.76-1c3-.1,6,0,9.32,0a14.85,14.85,0,0,1-.49,2.3c-1.64,3.94-3.08,8-5,11.75-6.39,12.28-11.15,25.26-16.66,37.92-1.2,2.77-2.68,3.88-5.58,3.52A40.67,40.67,0,0,0,234.05,326.83Z"/><path class="cls-16" d="M366.54,286.45c.87-2,1.67-3.82,2.39-5.63,1-2.52.43-3.47-2.27-3.72a27.47,27.47,0,0,0-3.74,0,4.15,4.15,0,0,0-3.87,2.69q-1.17,2.71-2.33,5.45a5,5,0,0,0,.83,5.55,27.91,27.91,0,0,0,3.12,3c1.27,1.08,2.71,2,3.95,3.06,4.23,3.75,5,7.05,2.83,12.26-1.5,3.66-3.09,7.28-4.63,10.92a9.81,9.81,0,0,1-7.61,6.25,36.09,36.09,0,0,1-5.57.61c-4,.09-7.91,0-11.87,0-.94,0-1.88,0-2.81-.13-5.24-.52-6.2-2.08-4.23-6.89.87-2.12,1.71-4.25,2.73-6.3.37-.74,1.18-1.72,1.85-1.77,2.87-.2,5.76-.08,9.28-.08-.9,2.26-1.59,4-2.25,5.65-1.07,2.72-.53,3.57,2.39,3.79.51,0,1,0,1.56,0,3.78.31,6.41-1,7.51-4.92a43.28,43.28,0,0,1,2.28-5.47,7.83,7.83,0,0,0-1.87-9.42,22.49,22.49,0,0,0-4.46-3.36c-5.17-2.93-6.67-6.83-4.48-12.24.74-1.84,1.61-3.62,2.29-5.47,2.15-5.9,6.57-8.69,12.59-8.94,5.2-.21,10.41-.05,15.61-.05l.62.05c4.7.52,5.78,2.34,3.95,6.73-.93,2.21-2,4.36-2.81,6.6a2.88,2.88,0,0,1-3.3,2.13c-2.08-.12-4.16,0-6.25-.07A8.37,8.37,0,0,1,366.54,286.45Z"/><path class="cls-16" d="M218.9,271.36c-.91,2.15-1.54,3.56-2.11,5-.49,1.25-1.55,1.21-2.6,1.21-3.75,0-7.5.1-11.24,0a3.57,3.57,0,0,0-4,2.63c-1.31,3.47-2.87,6.85-4.58,10.87l12.36.24a38.41,38.41,0,0,1-2.14,4.87,3.19,3.19,0,0,1-2.28,1.15c-2.8.14-5.62.11-8.43,0a2.89,2.89,0,0,0-3.12,2c-2.68,6.43-5.45,12.83-8.17,19.26a14.41,14.41,0,0,0-.44,1.84c4.9.58,9.66-.1,14.86.48-.79,1.93-1.31,3.48-2.07,4.9a2.31,2.31,0,0,1-1.74,1c-8.21,0-16.43-.08-24.64-.15-.09,0-.18-.1-.58-.34.46-1.16.91-2.4,1.46-3.59,2.23-4.79,4.61-9.51,6.71-14.35,4.89-11.26,9.73-22.55,14.4-33.9,1-2.45,2.34-3.19,4.87-3.12,6.45.16,12.91.05,19.37.05Z"/><path class="cls-16" d="M291.5,326.22c.38-1.06.72-2.12,1.15-3.14,3.53-8.33,7-16.69,10.64-25s7.54-16.61,11.26-24.94a2.54,2.54,0,0,1,2.55-1.83c7.9.05,15.81.06,23.72.09.18,0,.37.16.78.36-.68,1.52-1.38,3-2.06,4.6-.53,1.18-1.58,1.19-2.64,1.19-3.64,0-7.29.08-10.93,0a3.19,3.19,0,0,0-3.52,2.32c-1.39,3.56-2.95,7.05-4.65,11.08l12.25.32a32.88,32.88,0,0,1-2.14,4.88,3.32,3.32,0,0,1-2.39,1,47.67,47.67,0,0,1-7.17,0c-2.55-.25-3.73.89-4.62,3.12-2.2,5.5-4.6,10.92-6.94,16.37-.48,1.13-1.06,2.23-1.76,3.69,4.94.81,10-.12,15.39.59a42.11,42.11,0,0,1-1.93,4.64,2.61,2.61,0,0,1-1.9,1.23c-8,.07-16,0-24,0C292.3,326.74,292,326.49,291.5,326.22Z"/><path class="cls-16" d="M425.66,277.63H417a50.13,50.13,0,0,1,2.08-5,2.65,2.65,0,0,1,1.9-1.19c5.93-.06,11.85,0,17.78,0,.18,0,.35.18.45.24q-4.68,10.85-9.34,21.66c-3.7,8.66-7.54,17.26-11,26-2,5.07-5.54,7.35-10.7,7.45-5.72.1-11.45.14-17.16,0s-6.6-1.49-4.42-6.86c1.09-2.68,2.2-5.35,3.14-8.08a2.65,2.65,0,0,1,2.4-2.09c2.87-.12,5.76,0,8.94,0a15.33,15.33,0,0,1-.46,2.43c-.68,1.75-1.47,3.45-2.17,5.18-1,2.58-.28,3.86,2.5,4.33a7,7,0,0,0,8-4.27q7.88-18.34,15.7-36.7C425,280,425.16,279.15,425.66,277.63Z"/><path class="cls-16" d="M446.48,326.25c.34-1,.62-1.94,1-2.86,7-16.37,14-32.72,20.88-49.13,1-2.35,2.24-3.17,4.67-3s4.73,0,7.76,0c-6.87,16.66-14,32.55-20.89,49.2H475a49.65,49.65,0,0,1-2.1,5.05,2.68,2.68,0,0,1-1.92,1.21c-7.81.06-15.62,0-23.43,0C447.28,326.75,447,326.51,446.48,326.25Z"/><path class="cls-16" d="M146.23,320.57h15a50,50,0,0,1-2.14,5,2.67,2.67,0,0,1-2,1.15c-7.8.05-15.61,0-23.41-.05-.19,0-.37-.17-.89-.43.3-.89.57-1.85.95-2.76,7-16.46,14.07-32.9,21-49.39.86-2,1.9-3,4.15-2.8,2.46.19,4.93.05,8,.05C160.22,288.05,153,303.88,146.23,320.57Z"/><path class="cls-16" d="M262,326.84c3.59-8.45,7-16.57,10.51-24.68s6.83-16,10.48-24.56h-9a50.05,50.05,0,0,1,2.08-5,2.64,2.64,0,0,1,1.92-1.19c9.05,0,18.11.05,27.16.1.09,0,.19.09.39.19a12.58,12.58,0,0,0-1.32,2.68c-.64,2.84-2.46,3.26-5.07,3.24-6.2-.05-5-1.14-7.64,4.94-5.93,13.88-11.91,27.74-17.76,41.65-.81,1.94-1.85,2.77-3.95,2.64C267.26,326.72,264.77,326.84,262,326.84Z"/><path class="cls-16" d="M481.26,326.85c.59-1.37.92-2.24,1.33-3.06,1-2.05,2.43-3.42,5.05-3.13a65.83,65.83,0,0,0,6.65,0,48.56,48.56,0,0,1-2.05,4.91,2.73,2.73,0,0,1-1.93,1.18C487.43,326.92,484.54,326.85,481.26,326.85Z"/><path class="cls-16" d="M437.56,320.73a4.68,4.68,0,0,1,0,1.1c-2.57,6-1.26,4.9-7.2,5-1.33,0-2.65,0-4.59,0,.83-2.06,1.37-3.67,2.15-5.15a2.42,2.42,0,0,1,1.77-.94C432.25,320.67,434.83,320.73,437.56,320.73Z"/></g></g></g></svg>