<svg xmlns="http://www.w3.org/2000/svg" viewBox="0 0 52.96 53.74"><defs><style>.cls-1{fill:#77d1c5;}</style></defs><g id="Capa_2" data-name="Capa 2"><g id="OBJECTS"><path class="cls-1" d="M7.66,46.08H7a4.29,4.29,0,0,0-5.41,0H1v.65a4.29,4.29,0,0,0,0,5.41v.64h.65a4.29,4.29,0,0,0,5.41,0h.64v-.64a4.29,4.29,0,0,0,0-5.41Z"/><path class="cls-1" d="M7.66,23.52H7a4.29,4.29,0,0,0-5.41,0H1v.65a4.29,4.29,0,0,0,0,5.41v.64h.65a4.29,4.29,0,0,0,5.41,0h.64v-.64a4.29,4.29,0,0,0,0-5.41Z"/><path class="cls-1" d="M7.66,1H7A4.29,4.29,0,0,0,1.61,1H1v.65A4.29,4.29,0,0,0,1,7v.64h.65A4.29,4.29,0,0,0,7,7.66h.64V7a4.29,4.29,0,0,0,0-5.41Z"/><path class="cls-1" d="M29.83,46.08h-.64a4.29,4.29,0,0,0-5.41,0h-.65v.65a4.29,4.29,0,0,0,0,5.41v.64h.65a4.29,4.29,0,0,0,5.41,0h.64v-.64a4.29,4.29,0,0,0,0-5.41Z"/><path class="cls-1" d="M29.83,23.52h-.64a4.29,4.29,0,0,0-5.41,0h-.65v.65a4.29,4.29,0,0,0,0,5.41v.64h.65a4.29,4.29,0,0,0,5.41,0h.64v-.64a4.29,4.29,0,0,0,0-5.41Z"/><path class="cls-1" d="M29.83,1h-.64a4.29,4.29,0,0,0-5.41,0h-.65v.65a4.29,4.29,0,0,0,0,5.41v.64h.65a4.29,4.29,0,0,0,5.41,0h.64V7a4.29,4.29,0,0,0,0-5.41Z"/><path class="cls-1" d="M52,46.08h-.64a4.29,4.29,0,0,0-5.41,0H45.3v.65a4.29,4.29,0,0,0,0,5.41v.64H46a4.29,4.29,0,0,0,5.41,0H52v-.64a4.29,4.29,0,0,0,0-5.41Z"/><path class="cls-1" d="M52,23.52h-.64a4.29,4.29,0,0,0-5.41,0H45.3v.65a4.29,4.29,0,0,0,0,5.41v.64H46a4.29,4.29,0,0,0,5.41,0H52v-.64a4.29,4.29,0,0,0,0-5.41Z"/><path class="cls-1" d="M52,1h-.64A4.29,4.29,0,0,0,46,1H45.3v.65A4.29,4.29,0,0,0,45.3,7v.64H46a4.29,4.29,0,0,0,5.41,0H52V7a4.29,4.29,0,0,0,0-5.41Z"/></g></g></svg>