<svg xmlns="http://www.w3.org/2000/svg" xmlns:xlink="http://www.w3.org/1999/xlink" viewBox="0 0 1200 656.25"><defs><style>.cls-1,.cls-10,.cls-11,.cls-12,.cls-13,.cls-14,.cls-15,.cls-16,.cls-17,.cls-2,.cls-3,.cls-4,.cls-5,.cls-6,.cls-7,.cls-8,.cls-9{fill:none;}.cls-10,.cls-11,.cls-12,.cls-13,.cls-14,.cls-15,.cls-16,.cls-17,.cls-2,.cls-3,.cls-4,.cls-5,.cls-6,.cls-7,.cls-8,.cls-9{stroke-miterlimit:10;stroke-width:4px;}.cls-2{stroke:url(#Degradado_sin_nombre_25);}.cls-3{stroke:url(#Degradado_sin_nombre_25-2);}.cls-4{stroke:url(#Degradado_sin_nombre_25-3);}.cls-5{stroke:url(#Degradado_sin_nombre_25-4);}.cls-6{stroke:url(#Degradado_sin_nombre_25-5);}.cls-7{stroke:url(#Degradado_sin_nombre_25-6);}.cls-8{stroke:url(#Degradado_sin_nombre_25-7);}.cls-9{stroke:url(#Degradado_sin_nombre_25-8);}.cls-10{stroke:url(#Degradado_sin_nombre_25-9);}.cls-11{stroke:url(#Degradado_sin_nombre_25-10);}.cls-12{stroke:url(#Degradado_sin_nombre_25-11);}.cls-13{stroke:url(#Degradado_sin_nombre_25-12);}.cls-14{stroke:url(#Degradado_sin_nombre_25-13);}.cls-15{stroke:url(#Degradado_sin_nombre_25-14);}.cls-16{stroke:url(#Degradado_sin_nombre_25-15);}.cls-17{stroke:url(#Degradado_sin_nombre_25-16);}.cls-18,.cls-20{opacity:0.68;}.cls-19,.cls-20{fill:#77d1c5;}.cls-21{opacity:0.69;}</style><linearGradient id="Degradado_sin_nombre_25" x1="848.12" y1="484.09" x2="919.3" y2="484.09" gradientTransform="translate(30.97 -122.88) rotate(18.58)" gradientUnits="userSpaceOnUse"><stop offset="0" stop-color="#83e9e4" stop-opacity="0"/><stop offset="0.12" stop-color="#83e9e4" stop-opacity="0.09"/><stop offset="0.38" stop-color="#83e9e4" stop-opacity="0.34"/><stop offset="0.75" stop-color="#83e9e4" stop-opacity="0.72"/><stop offset="1" stop-color="#83e9e4"/></linearGradient><linearGradient id="Degradado_sin_nombre_25-2" x1="1241.51" y1="326.84" x2="1302.1" y2="326.84" xlink:href="#Degradado_sin_nombre_25"/><linearGradient id="Degradado_sin_nombre_25-3" x1="317.26" y1="47.53" x2="377.86" y2="47.53" xlink:href="#Degradado_sin_nombre_25"/><linearGradient id="Degradado_sin_nombre_25-4" x1="1014.31" y1="-115.76" x2="1074.9" y2="-115.76" xlink:href="#Degradado_sin_nombre_25"/><linearGradient id="Degradado_sin_nombre_25-5" x1="890.26" y1="-50.37" x2="950.86" y2="-50.37" xlink:href="#Degradado_sin_nombre_25"/><linearGradient id="Degradado_sin_nombre_25-6" x1="998.51" y1="45.02" x2="1027.15" y2="45.02" xlink:href="#Degradado_sin_nombre_25"/><linearGradient id="Degradado_sin_nombre_25-7" x1="1111.17" y1="276.44" x2="1152.92" y2="276.44" xlink:href="#Degradado_sin_nombre_25"/><linearGradient id="Degradado_sin_nombre_25-8" x1="712.71" y1="172.88" x2="760.19" y2="172.88" xlink:href="#Degradado_sin_nombre_25"/><linearGradient id="Degradado_sin_nombre_25-9" x1="759.29" y1="355.81" x2="833.81" y2="355.81" xlink:href="#Degradado_sin_nombre_25"/><linearGradient id="Degradado_sin_nombre_25-10" x1="764.22" y1="-11.99" x2="820.49" y2="-11.99" xlink:href="#Degradado_sin_nombre_25"/><linearGradient id="Degradado_sin_nombre_25-11" x1="729.88" y1="507.65" x2="809.9" y2="507.65" xlink:href="#Degradado_sin_nombre_25"/><linearGradient id="Degradado_sin_nombre_25-12" x1="478.61" y1="620.13" x2="558.63" y2="620.13" xlink:href="#Degradado_sin_nombre_25"/><linearGradient id="Degradado_sin_nombre_25-13" x1="922.92" y1="367.4" x2="951.48" y2="367.4" xlink:href="#Degradado_sin_nombre_25"/><linearGradient id="Degradado_sin_nombre_25-14" x1="1069.98" y1="-45.31" x2="1098.62" y2="-45.31" xlink:href="#Degradado_sin_nombre_25"/><linearGradient id="Degradado_sin_nombre_25-15" x1="667.24" y1="352.14" x2="695.88" y2="352.14" xlink:href="#Degradado_sin_nombre_25"/><linearGradient id="Degradado_sin_nombre_25-16" x1="507.42" y1="-7.1" x2="587.44" y2="-7.1" xlink:href="#Degradado_sin_nombre_25"/></defs><g id="Capa_2" data-name="Capa 2"><g id="OBJECTS"><rect class="cls-1" width="1200" height="630"/><line class="cls-2" x1="671.12" y1="639.04" x2="757.68" y2="596.03"/><line class="cls-3" x1="1095.8" y1="610.3" x2="1168.96" y2="573.95"/><line class="cls-4" x1="308.69" y1="51.08" x2="381.85" y2="14.73"/><line class="cls-5" x1="1021.45" y1="118.38" x2="1094.61" y2="82.02"/><line class="cls-6" x1="883.03" y1="140.84" x2="956.19" y2="104.49"/><line class="cls-7" x1="960.34" y1="250.6" x2="993.03" y2="234.36"/><line class="cls-8" x1="991.31" y1="512.07" x2="1040.6" y2="487.58"/><line class="cls-9" x1="645.69" y1="289.67" x2="702.25" y2="261.57"/><line class="cls-10" x1="627.26" y1="490.73" x2="718.06" y2="445.61"/><line class="cls-11" x1="752.02" y1="135.01" x2="819.7" y2="101.38"/><line class="cls-12" x1="550.13" y1="627.9" x2="647.89" y2="579.31"/><line class="cls-13" x1="276.11" y1="654.46" x2="373.87" y2="605.88"/><line class="cls-14" x1="785.99" y1="532.06" x2="818.58" y2="515.86"/><line class="cls-15" x1="1056.87" y1="187.75" x2="1089.56" y2="171.5"/><line class="cls-16" x1="548.48" y1="436.18" x2="581.17" y2="419.94"/><line class="cls-17" x1="503.25" y1="69.09" x2="601.02" y2="20.51"/><rect class="cls-1" width="1200" height="630"/><rect class="cls-1" width="1200" height="630"/><g class="cls-18"><path class="cls-19" d="M465.79,80.07H455.64V90h-7.53V80.07H438V73h10.09V63h7.53V73h10.15Z"/><rect class="cls-20" x="888.82" y="479.83" width="35.12" height="9.08"/><rect class="cls-19" x="545.95" y="488.92" width="35.12" height="9.08"/><rect class="cls-19" x="779.92" y="70.05" width="35.12" height="9.08"/><g class="cls-21"><path class="cls-19" d="M750.33,520.85H738.18v11.87h-9V520.85H717.1v-8.52h12.08V500.47h9v11.86h12.15Z"/></g><path class="cls-19" d="M1114.89,113.66h-10.15v9.92h-7.52v-9.92h-10.1v-7.11h10.1V96.63h7.52v9.92h10.15Z"/></g></g></g></svg>