<svg xmlns="http://www.w3.org/2000/svg" xmlns:xlink="http://www.w3.org/1999/xlink" viewBox="0 0 98 97.43"><defs><style>.cls-1{isolation:isolate;}.cls-2{opacity:0.57;}.cls-3{mix-blend-mode:multiply;opacity:0.67;}.cls-4{fill:url(#Degradado_sin_nombre_21);}.cls-5{fill:url(#Degradado_sin_nombre_21-2);}.cls-6{fill:url(#Degradado_sin_nombre_21-3);}.cls-7{fill:url(#Degradado_sin_nombre_21-4);}.cls-8{fill:url(#Degradado_sin_nombre_21-5);}.cls-9{fill:url(#Degradado_sin_nombre_21-6);}.cls-10{fill:url(#Degradado_sin_nombre_21-7);}.cls-11{fill:url(#Degradado_sin_nombre_21-8);}.cls-12{fill:url(#Degradado_sin_nombre_21-9);}.cls-13{fill:url(#Degradado_sin_nombre_21-10);}.cls-14{fill:url(#Degradado_sin_nombre_21-11);}.cls-15{fill:url(#Degradado_sin_nombre_21-12);}.cls-16{fill:url(#Degradado_sin_nombre_21-13);}.cls-17{fill:url(#Degradado_sin_nombre_21-14);}.cls-18{fill:url(#Degradado_sin_nombre_21-15);}.cls-19{fill:url(#Degradado_sin_nombre_21-16);}.cls-20{fill:url(#Degradado_sin_nombre_21-17);}.cls-21{fill:url(#Degradado_sin_nombre_21-18);}.cls-22{fill:url(#Degradado_sin_nombre_21-19);}.cls-23{fill:url(#Degradado_sin_nombre_21-20);}.cls-24{fill:url(#Degradado_sin_nombre_21-21);}.cls-25{fill:url(#Degradado_sin_nombre_21-22);}.cls-26{fill:url(#Degradado_sin_nombre_21-23);}.cls-27{fill:url(#Degradado_sin_nombre_21-24);}.cls-28{fill:url(#Degradado_sin_nombre_21-25);}.cls-29{fill:url(#Degradado_sin_nombre_21-26);}.cls-30{fill:url(#Degradado_sin_nombre_21-27);}.cls-31{fill:url(#Degradado_sin_nombre_21-28);}.cls-32{fill:url(#Degradado_sin_nombre_21-29);}.cls-33{fill:url(#Degradado_sin_nombre_21-30);}.cls-34{fill:url(#Degradado_sin_nombre_21-31);}</style><linearGradient id="Degradado_sin_nombre_21" x1="142.67" y1="302.43" x2="152.37" y2="302.43" gradientTransform="translate(-257.27 -171.36) rotate(-24.19)" gradientUnits="userSpaceOnUse"><stop offset="0" stop-color="#87f0fd"/><stop offset="1" stop-color="#5a9f98"/></linearGradient><linearGradient id="Degradado_sin_nombre_21-2" x1="140.4" y1="304.02" x2="160.3" y2="304.02" xlink:href="#Degradado_sin_nombre_21"/><linearGradient id="Degradado_sin_nombre_21-3" x1="140.13" y1="305.62" x2="166.18" y2="305.62" xlink:href="#Degradado_sin_nombre_21"/><linearGradient id="Degradado_sin_nombre_21-4" x1="140.39" y1="307.24" x2="171.3" y2="307.24" xlink:href="#Degradado_sin_nombre_21"/><linearGradient id="Degradado_sin_nombre_21-5" x1="141.19" y1="308.86" x2="175.95" y2="308.86" xlink:href="#Degradado_sin_nombre_21"/><linearGradient id="Degradado_sin_nombre_21-6" x1="142.36" y1="310.47" x2="180.28" y2="310.47" xlink:href="#Degradado_sin_nombre_21"/><linearGradient id="Degradado_sin_nombre_21-7" x1="143.81" y1="312.08" x2="184.37" y2="312.08" xlink:href="#Degradado_sin_nombre_21"/><linearGradient id="Degradado_sin_nombre_21-8" x1="145.47" y1="313.69" x2="188.26" y2="313.69" xlink:href="#Degradado_sin_nombre_21"/><linearGradient id="Degradado_sin_nombre_21-9" x1="147.32" y1="315.27" x2="191.97" y2="315.27" xlink:href="#Degradado_sin_nombre_21"/><linearGradient id="Degradado_sin_nombre_21-10" x1="149.33" y1="316.83" x2="195.54" y2="316.83" xlink:href="#Degradado_sin_nombre_21"/><linearGradient id="Degradado_sin_nombre_21-11" x1="151.48" y1="318.39" x2="198.96" y2="318.39" xlink:href="#Degradado_sin_nombre_21"/><linearGradient id="Degradado_sin_nombre_21-12" x1="153.76" y1="319.96" x2="202.26" y2="319.96" xlink:href="#Degradado_sin_nombre_21"/><linearGradient id="Degradado_sin_nombre_21-13" x1="156.17" y1="321.53" x2="205.44" y2="321.53" xlink:href="#Degradado_sin_nombre_21"/><linearGradient id="Degradado_sin_nombre_21-14" x1="158.69" y1="323.1" x2="208.51" y2="323.1" xlink:href="#Degradado_sin_nombre_21"/><linearGradient id="Degradado_sin_nombre_21-15" x1="161.32" y1="324.67" x2="211.47" y2="324.67" xlink:href="#Degradado_sin_nombre_21"/><linearGradient id="Degradado_sin_nombre_21-16" x1="164.05" y1="326.24" x2="214.31" y2="326.24" xlink:href="#Degradado_sin_nombre_21"/><linearGradient id="Degradado_sin_nombre_21-17" x1="166.9" y1="327.82" x2="217.05" y2="327.82" xlink:href="#Degradado_sin_nombre_21"/><linearGradient id="Degradado_sin_nombre_21-18" x1="169.85" y1="329.4" x2="219.68" y2="329.4" xlink:href="#Degradado_sin_nombre_21"/><linearGradient id="Degradado_sin_nombre_21-19" x1="172.92" y1="330.97" x2="222.2" y2="330.97" xlink:href="#Degradado_sin_nombre_21"/><linearGradient id="Degradado_sin_nombre_21-20" x1="176.1" y1="332.54" x2="224.6" y2="332.54" xlink:href="#Degradado_sin_nombre_21"/><linearGradient id="Degradado_sin_nombre_21-21" x1="179.4" y1="334.1" x2="226.88" y2="334.1" xlink:href="#Degradado_sin_nombre_21"/><linearGradient id="Degradado_sin_nombre_21-22" x1="182.83" y1="335.66" x2="229.03" y2="335.66" xlink:href="#Degradado_sin_nombre_21"/><linearGradient id="Degradado_sin_nombre_21-23" x1="186.39" y1="337.22" x2="231.04" y2="337.22" xlink:href="#Degradado_sin_nombre_21"/><linearGradient id="Degradado_sin_nombre_21-24" x1="190.11" y1="338.8" x2="232.89" y2="338.8" xlink:href="#Degradado_sin_nombre_21"/><linearGradient id="Degradado_sin_nombre_21-25" x1="193.99" y1="340.41" x2="234.56" y2="340.41" xlink:href="#Degradado_sin_nombre_21"/><linearGradient id="Degradado_sin_nombre_21-26" x1="198.08" y1="342.02" x2="236.01" y2="342.02" xlink:href="#Degradado_sin_nombre_21"/><linearGradient id="Degradado_sin_nombre_21-27" x1="202.42" y1="343.64" x2="237.18" y2="343.64" xlink:href="#Degradado_sin_nombre_21"/><linearGradient id="Degradado_sin_nombre_21-28" x1="207.07" y1="345.26" x2="237.98" y2="345.26" xlink:href="#Degradado_sin_nombre_21"/><linearGradient id="Degradado_sin_nombre_21-29" x1="212.18" y1="346.87" x2="238.24" y2="346.87" xlink:href="#Degradado_sin_nombre_21"/><linearGradient id="Degradado_sin_nombre_21-30" x1="218.06" y1="348.47" x2="237.97" y2="348.47" xlink:href="#Degradado_sin_nombre_21"/><linearGradient id="Degradado_sin_nombre_21-31" x1="226" y1="350.06" x2="235.7" y2="350.06" xlink:href="#Degradado_sin_nombre_21"/></defs><g class="cls-1"><g id="Capa_2" data-name="Capa 2"><g id="OBJECTS"><g class="cls-2"><g class="cls-3"><path class="cls-4" d="M2.24,34.48l-2,19.17A48.38,48.38,0,0,1,2.24,34.48Z"/><path class="cls-5" d="M6.54,24.68,2.39,64c-.39-1.18-.73-2.37-1-3.56L4.8,28C5.33,26.86,5.91,25.76,6.54,24.68Z"/><path class="cls-6" d="M10.41,18.94,5,70.38c-.25-.52-.49-1-.73-1.56-.14-.3-.27-.61-.4-.91L8.78,21.13C9.31,20.39,9.84,19.66,10.41,18.94Z"/><path class="cls-7" d="M14.12,14.72,7.73,75.24c-.4-.63-.8-1.28-1.18-1.94l6-56.92C13.05,15.82,13.58,15.26,14.12,14.72Z"/><path class="cls-8" d="M17.73,11.4,10.58,79.2c-.42-.52-.82-1.06-1.22-1.6L16.2,12.72Q17,12,17.73,11.4Z"/><path class="cls-9" d="M21.28,8.72,13.5,82.52c-.43-.44-.85-.89-1.25-1.35L19.77,9.8C20.26,9.43,20.76,9.07,21.28,8.72Z"/><path class="cls-10" d="M24.77,6.53,16.46,85.35c-.43-.38-.86-.76-1.27-1.16L23.28,7.41C23.77,7.11,24.27,6.81,24.77,6.53Z"/><path class="cls-11" d="M28.22,4.73l-8.75,83c-.44-.32-.86-.64-1.29-1L26.76,5.45C27.24,5.2,27.73,5,28.22,4.73Z"/><path class="cls-12" d="M31.64,3.28,22.51,89.86c-.44-.27-.87-.55-1.3-.85l9-85.16C30.67,3.65,31.15,3.46,31.64,3.28Z"/><path class="cls-13" d="M35,2.11,25.59,91.65c-.45-.23-.89-.47-1.32-.73L33.58,2.57C34.06,2.41,34.55,2.25,35,2.11Z"/><path class="cls-14" d="M38.38,1.22l-9.69,92c-.45-.2-.89-.4-1.33-.62l9.6-91C37.43,1.44,37.91,1.32,38.38,1.22Z"/><path class="cls-15" d="M41.71.58,31.82,94.44c-.45-.16-.89-.33-1.34-.51L40.3.82Z"/><path class="cls-16" d="M45,.18,35,95.48c-.46-.13-.91-.27-1.36-.42L43.61.32Z"/><path class="cls-17" d="M48.3,0,38.15,96.29,36.79,96,46.91.05C47.37,0,47.84,0,48.3,0Z"/><path class="cls-18" d="M51.56,0,41.35,96.88c-.45-.06-.91-.14-1.37-.23L50.18,0Z"/><path class="cls-19" d="M54.8.31l-10.23,97c-.46,0-.91-.08-1.37-.13L53.42.17C53.88.2,54.34.25,54.8.31Z"/><path class="cls-20" d="M58,.78,47.82,97.43l-1.39,0L56.64.55C57.1.61,57.56.69,58,.78Z"/><path class="cls-21" d="M61.21,1.46,51.09,97.38c-.46,0-.93,0-1.4.05L59.84,1.14Z"/><path class="cls-22" d="M64.37,2.37l-10,94.74-1.4.14L63,2C63.47,2.08,63.92,2.22,64.37,2.37Z"/><path class="cls-23" d="M67.51,3.5,57.7,96.61l-1.42.24L66.17,3C66.63,3.15,67.07,3.32,67.51,3.5Z"/><path class="cls-24" d="M70.63,4.88,61,95.86c-.47.13-.95.24-1.42.35L69.31,4.26C69.75,4.46,70.2,4.66,70.63,4.88Z"/><path class="cls-25" d="M73.72,6.51,64.41,94.86c-.48.16-1,.32-1.44.46L72.41,5.78C72.85,6,73.29,6.25,73.72,6.51Z"/><path class="cls-26" d="M76.79,8.42l-9,85.16c-.48.2-1,.39-1.46.57L75.48,7.57C75.92,7.84,76.36,8.12,76.79,8.42Z"/><path class="cls-27" d="M79.81,10.64,71.24,92q-.72.38-1.47.72l8.76-83C79,10,79.39,10.3,79.81,10.64Z"/><path class="cls-28" d="M82.81,13.23,74.71,90c-.49.3-1,.59-1.49.88l8.32-78.82Z"/><path class="cls-29" d="M85.75,16.25,78.23,87.63c-.5.37-1,.73-1.51,1.08l7.78-73.8C84.93,15.35,85.34,15.8,85.75,16.25Z"/><path class="cls-30" d="M88.64,19.83,81.8,84.7c-.5.46-1,.9-1.53,1.33l7.15-67.81C87.84,18.75,88.24,19.28,88.64,19.83Z"/><path class="cls-31" d="M91.45,24.12l-6,56.93c-.51.57-1,1.12-1.57,1.67l6.38-60.54C90.67,22.82,91.07,23.46,91.45,24.12Z"/><path class="cls-32" d="M93.75,28.61l.4.9L89.21,76.3q-.78,1.11-1.62,2.19L93,27.05C93.27,27.56,93.51,28.08,93.75,28.61Z"/><path class="cls-33" d="M95.6,33.4c.39,1.18.73,2.37,1,3.56L93.2,69.44c-.54,1.13-1.12,2.23-1.75,3.31Z"/><path class="cls-34" d="M97.78,43.77a48.49,48.49,0,0,1-2,19.19Z"/></g></g></g></g></g></svg>