<?xml version="1.0" encoding="utf-8"?>
<!-- Generator: Adobe Illustrator 26.0.1, SVG Export Plug-In . SVG Version: 6.00 Build 0)  -->
<svg version="1.1" id="Capa_1" xmlns="http://www.w3.org/2000/svg" xmlns:xlink="http://www.w3.org/1999/xlink" x="0px" y="0px"
	 viewBox="0 0 956.9 758.2" style="enable-background:new 0 0 956.9 758.2;" xml:space="preserve">
<style type="text/css">
	.st0{fill:#40C6F2;}
	.st1{fill:#253B5B;}
	.st2{fill:#FFFFFF;}
</style>
<g id="Capa_2_00000058583025756708934050000010953639044989640354_">
	<g id="OBJECTS">
		<path class="st0" d="M6.9,89.8c-0.4,1.2-2.2,0.8-4-0.8s-3.4-5.4-2.8-6.6c11-23.6,46.6-44.8,76.4-50.6c13.8-2.6,34.2-0.6,44.4,11
			c5.2,6,7,14.2,3.6,24.8c-4.4,13.2-10.2,28.8-16.2,45c-13.8,37-28.6,76.6-26.6,92c0.2,1.6,1,2.2,2.6,2c0.7-0.1,1.5-0.2,2.2-0.4
			c14.6-4.8,48.6-35.4,77.8-73.8c29.4-38.4,53.6-84.6,48.8-120.2c-0.4-3.3-1.2-6.6-2.2-9.8c-0.6-1.8,0.4-2.8,2.2-2.2
			c1.8,0.9,3.2,2.5,4,4.4c1.2,3.7,2,7.4,2.6,11.2c5,37-16.4,85.4-46,124.2s-67.4,68.2-82.2,73c-0.8,0.2-1.8,0.4-2.6,0.6
			c-8.2,1-12.4-3.6-13.6-12.6c-2.4-16.6,12.6-56.6,26.6-94c6-16,12-31.8,16.2-44.8c2.6-8.4,2.2-13.8-0.4-16.8
			c-6.4-7.2-26.4-5-34.8-3.4C53.5,47.6,17.7,66.8,6.9,89.8z"/>
		<path class="st0" d="M207.7,132.4c1-0.8,3,0,4.6,1.8s2.2,3.8,1.2,4.6c-4.4,3.8-11.6,12.4-16,20.8c-2.8,5.6-2.6,8.8-0.6,9.8
			c8.2,1.2,30.4-20.4,30.4-20.6c0.8-0.8,2.2-2.4,3.8-0.6c1.8,1.8,1,2.4,0.2,3.2c-0.2,0-33.4,36-42,21c-2.8-5-1.4-11.8,2-18.6
			C195.7,145.2,203.1,136.2,207.7,132.4z M220.1,126.6c-0.8,1-2.8,0.2-4.4-1.4c-1.6-1.8-2.4-3.8-1.6-4.8l11.2-12.8
			c0.8-1,2.6-0.2,4.4,1.4c1.6,1.8,2.2,3.8,1.6,4.8L220.1,126.6z"/>
		<path class="st0" d="M228.3,154.8c-0.8,0.8-3.2,2-4.8,0.4c-1.6-1.8,2.6-5.4,3.4-6.2l15-18.2c1.4-1.6,3-3,4.6-4.4
			c0.8-0.8,2.8,0,4.2,1.8c1.6,1.6,2.4,3.8,1.6,4.6l-4.8,4.6c-4.2,4.8-9.8,13.4-7.6,22.6c1.2,5.8,0.6,10.4-1,13.8
			c-1,1.7-2.3,3.2-3.8,4.4c-1.4,1-2.9,1.8-4.6,2.2c-2.6,0.6-5.4,0.2-7.8-1c-11.4-5.8-5.2-17-5.2-17.2c0.6-1,2.4-0.6,4.2,1
			s2.6,3.8,2.2,4.8c0,0.2-2.8,5.2-2.4,5.4c1.3,0.4,2.7,0.4,4,0c1.5-0.2,2.9-0.8,4-1.8c1.3-0.9,2.3-2.2,3-3.6c1.6-3.4,2-7.3,1-11
			c0-2.6-1.8-2.8,3-11.6L228.3,154.8z"/>
		<path class="st0" d="M272.7,132.4c1-0.8,3,0,4.6,1.8s2.2,3.8,1.2,4.6c-4.4,3.8-11.6,12.4-16,20.8c-2.8,5.6-2.6,8.8-0.6,9.8
			c8.2,1.2,30.4-20.4,30.4-20.6c0.8-0.8,2.2-2.4,3.8-0.6c1.8,1.8,1,2.4,0.2,3.2c-0.2,0-33.4,36-42,21c-2.8-5-1.4-11.8,2-18.6
			C260.7,145.2,268.1,136.2,272.7,132.4z M285.1,126.6c-0.8,1-2.8,0.2-4.4-1.4c-1.6-1.8-2.4-3.8-1.6-4.8l11.2-12.8
			c0.8-1,2.6-0.2,4.4,1.4c1.6,1.8,2.2,3.8,1.6,4.8L285.1,126.6z"/>
		<path class="st0" d="M299.7,138.2c0.8-0.6,2.8,0.2,4.4,2s2,3.8,1.2,4.6c-0.6,0.4-1.1,0.8-1.6,1.2c-4.2,3.8-7.6,10-9.8,16.2
			c-1.6,5.2-2.4,10-1.4,12c1.2,0.4,2.6,0.4,3.8,0c2.3-0.8,4.3-2.1,6-3.8c3.2-3,5.9-6.6,7.8-10.6c1.4-2.6,2.4-5.4,3.2-8.2
			c-3.3-2.8-6-6.3-7.8-10.2c-1.4-3.1-2.1-6.4-2-9.8c0.4-2.8,1.6-4.8,4-5.2c1.7-0.2,3.5,0.2,5,1c2.7,1.5,4.9,3.9,6.2,6.8
			c1.1,2.3,1.9,4.7,2.2,7.2c0.4,2.9,0.4,5.7,0,8.6c4.4,0.8,11,1.6,18-2.4c1-0.6,2-1.4,3.6,0.4c1.4,1.8,1.2,3.2,0.2,3.8
			c-9.4,5.2-16.4,6-22.6,3.8c-0.8,3.5-2,6.9-3.8,10c-2,4.2-4.8,8-8.2,11.2c-2.4,2-4.6,3.6-6.8,4.2c-2.6,0.8-5.4,0.5-7.8-0.8
			c-1.5-0.8-2.9-1.9-4-3.2l-1.2-1.2c-3.2-4.6-3-12-0.8-19c2.2-6.6,6-13.2,10.4-17.2C298.5,139.2,299.1,138.6,299.7,138.2z
			 M309.7,118.4c0.4-0.5,0.8-1,1.2-1.6c1.6-2.4,3-5.2,3.2-6.6c0-0.8,1-2,2.2-2.6s4,1.4,4,2.4c-0.4,2.8-7.8,14-13.4,12.4
			c-0.2,0-0.4-0.2-0.6-0.4c-0.4-0.4,0-1.6,1-2.6C308.1,118.8,309.1,118.2,309.7,118.4z M314.3,146.8c0.4-3,0.4-6,0-9
			c-0.1-1.5-0.5-3-1-4.4h0.2c-0.4-0.2-1-0.2-1.4,0c-1.2,0-1.8,1.2-2,3c-0.2,2.1,0.3,4.3,1.2,6.2C311.9,144.2,313,145.7,314.3,146.8
			L314.3,146.8z"/>
		<path class="st0" d="M344.9,136.8c0.6-1,2.6-0.6,4.2,1c1.8,1.6,2.6,3.8,2,4.8l-5,9c10.8-9,22.6-17.8,27-16.6h0.4
			c6,1.8,7,5.6,5.6,10.6c-0.9,2.7-2.1,5.3-3.4,7.8c-2.6,5.2-5.6,11-5.6,11c6.4,4.2,28-14.8,28.2-14.8c0.6-0.8,2.8-3.4,4.4-1.6
			c1.8,1.6,0.6,2-0.2,3c0,0-21.8,25.8-32.2,19c-9-5.8-4.6-14.6-0.8-22.4c0.8-1.6,1.5-3.2,2.2-4.8c-11.4,6-38,31.4-38.8,32.2
			c-0.6,0.8-2.4,0.2-4-1.2c-1.6-1.8-2.6-3.8-2-4.8L344.9,136.8z"/>
		<path class="st0" d="M439.1,214c1.2-2,10.2-17.8,12.2-21.6c1.4-2.6,3.2-5.4,4.8-8.6c11.2-21.2,27.8-51.8,38.4-53.2
			c13.4-1.8,16,13.4,10.8,24c-4,10.6-13.8,21.6-19,21.6c-6,0-10.4-3.8-13-7.6c-7.6,12.4-22.2,39-28.2,50l-1.6,2.8
			c-1,3.6-2.6,7.2-4.6,8.4c-4.6,2.6-7.2-9.8-5.4-20c2-10.4,44.2-90.8,46-93.8c1-1.8,9,2.8,8.2,4L439.1,214z M499.1,137.6
			c-5.4,0.6-14,12-23.2,26.6c0.8,1.6,2.8,5,6.4,5c4,0,11-10.8,14.8-20.8c1.1-2.6,2-5.3,2.6-8c0.2-2.2,0-3.8-0.4-4.4
			C498.7,135,499.7,137.4,499.1,137.6L499.1,137.6z"/>
		<path class="st0" d="M550.9,144.6c0.8,2,0.2,3.2-1.4,2.8c-1.9-0.7-3.5-2.1-4.4-4c-4-3.8-13.8,0.8-17.4,3.8
			c-7.4,6-11.6,13.2-13.8,22.4c7-2,25.2-23.2,25.2-23.2c0.8-0.8,2.6-0.2,4.4,1.6c1.4,1.6,2.2,3.4,1.6,4.4c-0.4,1-2.8,6.2-1.6,11.8
			c0.8,4.8,26.8-17,27.2-17.2c0.8-0.8,2.4-1.8,4-0.2c1.6,1.8,1.4,3.4,0.6,4.2c-13.2,11.8-21,18.8-26.4,21.6c-9.2,4.8-16.2,2-16-7.8
			c-7.2,6.8-14.6,13-19,11c-1.5-0.7-2.9-1.7-4-3c-1.9-2.3-2.8-5.4-2.4-8.4c0.3-2.6,1-5.2,2.2-7.6c2.9-6.2,7.2-11.6,12.4-16
			C531.1,133.4,547.5,133,550.9,144.6z"/>
		<path class="st0" d="M582.1,126.8c0.6-1,2.6-0.4,4.2,1.2c1.8,1.6,2.6,3.8,2,4.8l-7.4,11.8c7-3.4,16.6-6.6,20.6-1.6
			c1.8,2,1.2,6.6,3.8,6.8c5,0,10-0.7,14.8-2.2c1.2-0.4,2.4-1.4,3.6,0.4c1.4,2,0.6,2.6-0.6,2.8c-5.8,1.8-15.4,3.8-19.6,3.4
			c-5.2-0.4-6.8-1.8-11.2-7c-3-3.6-20.8,12.2-20.8,12.2c-0.4,0.2-10.8,17.8-11.8,19.6c-0.6,1-2.6,0.4-4.2-1.2
			c-1.8-1.6-2.6-3.8-2-4.8L582.1,126.8z"/>
		<path class="st0" d="M653.7,144.6c0.8,2,0.2,3.2-1.4,2.8c-1.9-0.7-3.5-2.1-4.4-4c-4-3.8-13.8,0.8-17.4,3.8
			c-7.4,6-11.6,13.2-13.8,22.4c7-2,25.2-23.2,25.2-23.2c0.8-0.8,2.6-0.2,4.4,1.6c1.4,1.6,2.2,3.4,1.6,4.4c-0.4,1-2.8,6.2-1.6,11.8
			c0.8,4.8,26.8-17,27.2-17.2c0.8-0.8,2.4-1.8,4-0.2c1.6,1.8,1.4,3.4,0.6,4.2c-13.2,11.8-21,18.8-26.4,21.6c-9.2,4.8-16.2,2-16-7.8
			c-7.2,6.8-14.6,13-19,11c-1.5-0.7-2.9-1.7-4-3c-1.9-2.3-2.8-5.4-2.4-8.4c0.3-2.6,1-5.2,2.2-7.6c2.9-6.2,7.2-11.6,12.4-16
			C633.9,133.4,650.3,133,653.7,144.6z"/>
		<path class="st1" d="M76.5,394.3V222.9H150v24.5h-46.5v45.3h37v24.5h-37v52.6H150v24.5L76.5,394.3z"/>
		<path class="st1" d="M164.4,394.3V222.9h26.9v146.9h44.3v24.5L164.4,394.3z"/>
		<path class="st1" d="M287.9,394.3V222.9h71.3v24.5h-44.3v47.8h34.8v24.5h-34.8v74.7H287.9z"/>
		<path class="st1" d="M371.1,222.9h26.9v132.7c0,11,4.7,16.6,13.7,16.6s13.7-5.6,13.7-16.6V222.9h26v130.8
			c0,27.7-14,43.1-40.2,43.1s-40.2-15.4-40.2-43.1L371.1,222.9z"/>
		<path class="st1" d="M491.6,394.3V247.4h-28.2v-24.5h83.3v24.5h-28.2v146.9H491.6z"/>
		<path class="st1" d="M558.7,222.9h26.9v132.7c0,11,4.7,16.6,13.7,16.6s13.7-5.6,13.7-16.6V222.9h26v130.8
			c0,27.7-14,43.1-40.2,43.1s-40.2-15.4-40.2-43.1L558.7,222.9z"/>
		<path class="st1" d="M658.2,394.3V222.9h39.9c27.7,0,39.9,12.7,39.9,39.4v10.5c0,17.9-5.9,29.1-17.6,33.8v0.5
			c12,3.7,17.9,15.9,17.9,36.2v30.1c0,9.3,1,16.2,2.9,20.8h-27.4c-1.7-4.9-2.5-12-2.5-21.1v-31.3c0-15.7-4.4-21.1-16.9-21.1h-9.3
			v73.5H658.2z M685.1,296.3h9.8c10.8,0,16.2-5.1,16.2-18.1V265c0-11.8-4.7-17.6-13.7-17.6h-12.2V296.3z"/>
		<path class="st1" d="M754.9,263.5c0-27.4,14.5-43.1,40.9-43.1s40.9,15.7,40.9,43.1v90.1c0,27.4-14.5,43.1-40.9,43.1
			s-40.9-15.7-40.9-43.1V263.5z M809.8,261.8c0-11.3-4.7-16.9-14-16.9c-9.3,0-14,5.6-14,16.9v93.5c0,11.3,4.7,16.9,14,16.9
			c9.3,0,14-5.6,14-16.9V261.8z"/>
		<path class="st0" d="M114.3,433.4h338.7c22.6,0,40.9,18.3,40.9,40.9l0,0c0,22.6-18.3,40.9-40.9,40.9H114.3
			c-22.6,0-40.9-18.3-40.9-40.9l0,0C73.4,451.7,91.7,433.4,114.3,433.4z"/>
		<circle class="st2" cx="116.1" cy="473.4" r="25.8"/>
		<path class="st2" d="M184.1,483.2h-11.7l-1.9,5.6h-6.2l10.5-29.3h6.8l10.5,29.3H186L184.1,483.2z M182.5,478.5l-4.2-12.2
			l-4.3,12.2H182.5z"/>
		<path class="st2" d="M205.1,466.2c1.4-0.7,3-1.1,4.6-1.1c1.9,0,3.8,0.5,5.4,1.5c1.6,1,3,2.5,3.8,4.2c1,1.9,1.4,4.1,1.4,6.3
			c0,2.2-0.4,4.3-1.4,6.3c-0.9,1.7-2.2,3.2-3.8,4.2c-1.6,1-3.5,1.5-5.4,1.5c-3,0.1-5.8-1.3-7.7-3.7v14.4h-5.9v-34.3h5.9v3.4
			C202.8,467.7,203.9,466.8,205.1,466.2z M213.4,473.4c-1.1-1.9-3.1-3.1-5.3-3.1c-1.1,0-2.1,0.3-3,0.8c-1,0.6-1.7,1.4-2.3,2.4
			c-1.1,2.3-1.1,5,0,7.3c0.5,1,1.3,1.8,2.3,2.4c1.9,1.1,4.1,1.1,6,0c1-0.6,1.7-1.4,2.3-2.4c0.6-1.1,0.9-2.4,0.9-3.7
			C214.3,475.8,214,474.5,213.4,473.4L213.4,473.4z"/>
		<path class="st2" d="M224.4,470.8c0.9-1.7,2.2-3.2,3.8-4.2c1.6-1,3.5-1.5,5.4-1.5c3-0.1,5.9,1.3,7.7,3.7v-3.3h5.9v23.2h-5.9v-3.4
			c-0.8,1.1-1.9,2.1-3.1,2.7c-1.4,0.7-3,1.1-4.6,1.1c-1.9,0-3.7-0.5-5.4-1.5c-1.6-1-3-2.5-3.8-4.2c-1-2-1.5-4.1-1.4-6.3
			C223,474.8,223.5,472.7,224.4,470.8z M240.4,473.5c-0.5-1-1.3-1.8-2.3-2.4c-0.9-0.5-2-0.8-3.1-0.8c-2.2,0-4.2,1.2-5.3,3.1
			c-0.6,1.1-0.9,2.3-0.9,3.6c0,1.3,0.3,2.5,0.9,3.7c0.5,1,1.3,1.8,2.3,2.4c0.9,0.6,1.9,0.8,3,0.8c2.2,0,4.3-1.2,5.3-3.2
			C241.6,478.4,241.6,475.7,240.4,473.5L240.4,473.5z"/>
		<path class="st2" d="M261.8,466.2c1.3-0.7,2.7-1.1,4.2-1v6.2h-1.5c-1.5-0.1-3,0.4-4.2,1.3c-0.9,0.9-1.4,2.4-1.4,4.5v11.6H253
			v-23.2h5.9v3.6C259.6,467.9,260.6,466.9,261.8,466.2z"/>
		<path class="st2" d="M276.7,470.3v11.2c-0.1,0.6,0.1,1.2,0.6,1.7c0.6,0.4,1.2,0.6,1.9,0.5h2.7v4.9h-3.7c-4.9,0-7.4-2.4-7.4-7.2
			v-11.2h-2.8v-4.8h2.8v-5.7h5.9v5.7h5.2v4.8H276.7z"/>
		<path class="st2" d="M286,470.8c0.9-1.7,2.2-3.2,3.8-4.2c1.6-1,3.5-1.5,5.4-1.5c1.6,0,3.1,0.3,4.5,1c1.2,0.6,2.3,1.5,3.1,2.6v-3.3
			h5.9v23.2h-5.9v-3.4c-0.8,1.1-1.9,2.1-3.1,2.7c-1.4,0.7-3,1.1-4.6,1.1c-1.9,0-3.7-0.5-5.4-1.5c-1.6-1-3-2.5-3.8-4.2
			c-1-2-1.4-4.1-1.4-6.3C284.6,474.9,285.1,472.7,286,470.8z M302,473.5c-0.5-1-1.3-1.8-2.3-2.4c-0.9-0.5-2-0.8-3.1-0.8
			c-2.2,0-4.2,1.2-5.3,3.1c-0.6,1.1-0.9,2.4-0.9,3.6c0,1.3,0.3,2.5,0.9,3.7c0.5,1,1.3,1.8,2.3,2.4c0.9,0.5,1.9,0.8,3,0.8
			c1.1,0,2.1-0.3,3.1-0.8c1-0.6,1.7-1.4,2.3-2.4C303.2,478.5,303.2,475.8,302,473.5z"/>
		<path class="st2" d="M331.4,470.3v11.2c-0.1,0.6,0.1,1.2,0.6,1.7c0.5,0.4,1.2,0.6,1.9,0.5h2.7v4.9h-3.7c-4.9,0-7.4-2.4-7.4-7.2
			v-11.2h-2.8v-4.8h2.8v-5.7h5.9v5.7h5.2v4.8H331.4z"/>
		<path class="st2" d="M362.7,465.5v23.2h-5.9v-2.9c-0.8,1-1.8,1.8-3,2.4c-1.3,0.6-2.6,0.9-4,0.9c-1.7,0-3.3-0.4-4.8-1.1
			c-1.4-0.8-2.5-2-3.3-3.4c-0.8-1.7-1.3-3.5-1.2-5.3v-13.6h5.9v12.8c-0.1,1.5,0.4,3.1,1.4,4.2c1,1,2.4,1.6,3.8,1.5
			c1.4,0.1,2.8-0.5,3.8-1.5c1-1.2,1.5-2.7,1.4-4.2v-12.8H362.7z"/>
		<path class="st2" d="M378.4,470.8c0.9-1.8,2.3-3.2,4.1-4.2c1.8-1,3.9-1.5,6-1.5c2.6-0.1,5.1,0.7,7.1,2.2c1.9,1.5,3.3,3.7,3.8,6.1
			h-6.3c-0.3-1-0.9-1.8-1.7-2.4c-0.9-0.6-1.9-0.9-3-0.9c-1.5-0.1-3,0.6-4,1.8c-1.9,3.2-1.9,7.1,0,10.3c1,1.2,2.5,1.9,4,1.8
			c2.1,0.2,4.1-1.1,4.6-3.2h6.3c-0.6,2.4-1.9,4.5-3.8,6c-2.1,1.5-4.6,2.3-7.1,2.2c-2.1,0-4.1-0.5-6-1.5c-1.7-1-3.1-2.4-4.1-4.2
			C376.5,479.5,376.5,474.8,378.4,470.8L378.4,470.8z"/>
		<path class="st2" d="M404.1,461.8c-1.4-1.3-1.4-3.5,0-4.9c0,0,0,0,0,0c1.5-1.3,3.7-1.3,5.1,0c1.4,1.3,1.4,3.5,0,4.9c0,0,0,0,0,0
			C407.8,463.1,405.6,463.1,404.1,461.8z M409.6,465.5v23.2h-5.9v-23.2H409.6z"/>
		<path class="st2" d="M422.2,470.3v11.2c-0.1,0.6,0.1,1.2,0.6,1.7c0.5,0.4,1.2,0.6,1.9,0.5h2.7v4.9h-3.7c-4.9,0-7.4-2.4-7.4-7.2
			v-11.2h-2.8v-4.8h2.8v-5.7h5.9v5.7h5.2v4.8H422.2z"/>
		<path class="st2" d="M431.5,470.8c1.7-3.5,5.3-5.7,9.2-5.7c1.6,0,3.1,0.3,4.5,1c1.2,0.6,2.3,1.5,3.1,2.6v-3.3h5.9v23.2h-5.9v-3.4
			c-0.8,1.1-1.9,2.1-3.1,2.7c-1.4,0.7-3,1.1-4.6,1.1c-1.9,0-3.7-0.5-5.3-1.5c-1.6-1-3-2.5-3.8-4.2c-1-2-1.5-4.2-1.4-6.3
			C430.1,474.9,430.5,472.7,431.5,470.8z M447.5,473.5c-0.5-1-1.3-1.8-2.3-2.4c-0.9-0.5-2-0.8-3.1-0.8c-1.1,0-2.1,0.3-3,0.8
			c-0.9,0.6-1.7,1.4-2.2,2.3c-0.6,1.1-0.9,2.4-0.9,3.6c0,1.3,0.3,2.5,0.9,3.7c0.5,1,1.3,1.8,2.3,2.4c0.9,0.6,1.9,0.8,3,0.8
			c1.1,0,2.1-0.3,3.1-0.8c1-0.6,1.7-1.4,2.3-2.4C448.6,478.5,448.6,475.8,447.5,473.5L447.5,473.5z"/>
		<path class="st1" d="M956.9,637.5v28.6c-7.8,52.9-53.2,92-106.6,92H58.2V637.5H956.9z"/>
		<circle class="st2" cx="129.6" cy="697.8" r="37.7"/>
		<path class="st1" d="M150.4,696.6v0.8h-2.8v-1.2l-0.4-3.3v-1.1c-0.2-0.7-0.4-1.3-0.7-1.9l0,0l-1.1-2.1l-0.8-1.2v-0.3
			c-1.3-1.8-2.9-3.4-4.7-4.6c-0.4-0.3-0.7-0.5-1.1-0.7c-0.6-0.4-1.3-0.8-2.1-1.1l0,0c-1-0.5-2.1-0.8-3.2-1.1
			c-1.4-0.4-2.8-0.5-4.2-0.5l0,0V676c0-0.4,0-0.4,0.4-0.4h1.5c0.1-0.1,0.3-0.1,0.4,0c0,0,0,0,0,0l0,0l0,0c5.8,0.8,11,3.8,14.5,8.5
			l0,0l0.4,0.6c0.4,0.5,0.8,1.1,1.1,1.7c0.8,1.4,1.5,3,2,4.6c0.1,0.2,0.1,0.5,0,0.8c0.2,1.1,0.4,2.1,0.5,3.2v1.7L150.4,696.6z"/>
		<path class="st1" d="M105.7,684.8v-1c0.9-1.4,2-2.6,3.2-3.7l1-0.8c0.5-0.3,0.9-0.5,1.4-0.6h3.5c1.5,0.5,2.8,1.7,3.5,3.2
			c0.3,0.6,0.4,1.1,0.5,1.7c0.4,1.3,0.8,2.8,1.1,4.3c0.3,1.4,0.1,2.8-0.5,4c-0.3,0.4-0.6,0.7-0.8,1.1l-1.6,1.2
			c-0.2,0.3-0.2,0.6,0,0.9l0.6,1.7c0.8,2.1,1.9,4.1,3.3,5.8c0.2,0.3,0.5,0.6,0.8,0.8c1.7,1.8,3.6,3.3,5.8,4.5l2.1,0.9
			c0.5,0.3,1.3,0.4,1.7,0.7c0.2,0.1,0.4,0.1,0.6,0l1.5-1.5c1.1-1.1,2.6-1.8,4.1-1.7c0.7,0.1,1.3,0.2,1.9,0.4l3.5,1.1h0.4
			c1.8,0.6,3.2,2.1,3.6,4c0.1,0.3,0.1,0.5,0,0.8v2.2c-0.3,1-0.8,1.8-1.5,2.5l-1.9,2.2c-0.2,0.3-0.5,0.6-0.9,0.7
			c-0.5,0.3-1,0.4-1.5,0.4h-2.6c-0.9,0.1-1.8,0.1-2.7,0c-1,0.1-2-0.1-2.9-0.6c-1.8-0.4-3.5-1-5.2-1.7h-0.5l-1-0.4l-2.5-1.2
			c-1.1-0.6-2.2-1.3-3.2-2.1l-2.7-2.1l-2.5-2.3l-2.1-2.5l-0.5-0.7l-0.3-0.4c-0.3-0.4-1.4-2.1-2.1-3.2l-1.2-2.4l-0.4-0.8
			c-0.3-0.8-0.7-1.7-0.9-2.5c-0.4-1.1-0.7-2.2-1-3.3v-0.8c0.1-0.5,0.1-0.9,0-1.4l-0.1-0.3c-0.4-0.9-0.7-1.9-0.9-2.9
			C105.5,687.7,105.9,686.2,105.7,684.8z"/>
		<path class="st1" d="M128,686.6v-2.7h2.1c0.2-0.1,0.5-0.1,0.8,0c0.9,0.3,1.9,0.6,2.7,1c3.9,1.8,6.7,5.3,7.7,9.5l0,0
			c0.1,0.2,0.1,0.4,0,0.6l0,0v1.8c0,0.7,0,0.6-0.4,0.4h-2.1v-2.1c0.1-0.4,0.1-0.9,0-1.3c-0.5-1.8-1.5-3.4-2.9-4.6
			c-1.2-1.2-2.7-2.1-4.4-2.7c-0.4-0.1-0.8-0.1-1.2,0h-1.9L128,686.6z"/>
		<path class="st1" d="M128.5,695c0,0-0.4,0-0.4-0.5v-2.3c0.7,0,1.5,0.1,2.2,0.4h1c0.5,0.3,0.9,0.7,1.3,1.2l0.7,1.1
			c0.3,0.5,0.4,1.1,0.4,1.7v0.5h-2.3c-0.4,0-0.4,0-0.4-0.4c-0.2-1.1-1-2.1-2.1-2.3l0,0L128.5,695z"/>
		
			<ellipse transform="matrix(0.9239 -0.3827 0.3827 0.9239 -227.7639 253.7135)" class="st2" cx="523.9" cy="699.4" rx="38.1" ry="38.1"/>
		<path class="st1" d="M535.5,681.9c-2.1-1.9-4.8-3.2-7.6-3.6c-0.8,0.1-1.6,0.1-2.4,0h-4c-1.2,0-2.4,0.2-3.6,0.5
			c-7,2.5-11.7,9.1-11.7,16.6c-0.1,3.5,0.8,6.9,2.4,10c2.9,6.1,7,11.5,12,16.1c0.7,0.7,1.6,1.2,2.6,1.4h1.4c0.7-0.1,1.4-0.4,2-0.9
			c1.5-1.3,2.8-2.7,4.2-4c2.8-2.9,5.2-6.2,7.1-9.8c2.2-3.6,3.5-7.7,3.8-12c0.3-5.5-2.1-10.9-6.3-14.4L535.5,681.9z M523.9,704.2
			c-4.8,0-8.7-4-8.6-8.8c0-4.8,4-8.7,8.8-8.6c4.8,0,8.7,4,8.6,8.8c0,0,0,0,0,0l0,0c0.1,4.7-3.7,8.6-8.4,8.6c0,0,0,0,0,0L523.9,704.2
			L523.9,704.2z"/>
		<path class="st0" d="M185.9,670.7c2-1.5,4.5-2.3,7-2.2c1.8-0.1,3.5,0.3,5.1,1c1.3,0.6,2.4,1.6,3.2,2.8c0.7,1.2,1.1,2.6,1.1,4
			c0,1.6-0.4,3.1-1.3,4.3c-0.8,1.1-1.9,1.9-3.2,2.4v0.2c1.5,0.4,2.8,1.3,3.7,2.6c0.9,1.4,1.4,3.1,1.3,4.8c0,1.5-0.4,3-1.1,4.4
			c-0.8,1.3-1.9,2.4-3.3,3c-4.2,1.8-9,1.3-12.7-1.2c-2-1.7-3.1-4.2-3.1-6.8h5.6c0,1.2,0.5,2.4,1.4,3.2c1,0.8,2.2,1.3,3.5,1.2
			c1.2,0.1,2.3-0.3,3.2-1.2c0.8-0.8,1.2-1.9,1.1-3c0.1-1.4-0.5-2.7-1.6-3.5c-1.5-0.8-3.1-1.2-4.8-1.1h-1.2v-4.7h1.2
			c3.9,0,5.8-1.3,5.8-3.9c0.1-1-0.3-2-1-2.7c-0.8-0.7-1.9-1.1-3-1c-1.1-0.1-2.2,0.3-3,1c-0.7,0.7-1.1,1.6-1.2,2.6H183
			C183,674.5,184.1,672.2,185.9,670.7z"/>
		<path class="st0" d="M206.7,674.4v-5.3h9.8v29.7h-5.9v-24.5H206.7z"/>
		<path class="st0" d="M224.7,672.6c1.7-2.7,4.5-4,8.5-4s6.8,1.3,8.5,4c1.7,2.7,2.6,6.3,2.6,11c0,4.7-0.8,8.4-2.6,11.1
			c-1.7,2.7-4.5,4-8.5,4s-6.8-1.3-8.5-4c-1.7-2.7-2.5-6.4-2.5-11.1C222.1,678.8,223,675.1,224.7,672.6z M238.1,678.6
			c-0.2-1.2-0.7-2.4-1.6-3.4c-2-1.7-4.9-1.7-6.9,0c-0.8,1-1.4,2.1-1.6,3.4c-0.3,1.7-0.4,3.4-0.4,5.1c0,1.7,0.1,3.5,0.4,5.2
			c0.2,1.3,0.7,2.4,1.6,3.4c2,1.7,4.9,1.7,6.9,0c0.8-1,1.4-2.1,1.6-3.4c0.3-1.7,0.4-3.5,0.4-5.2
			C238.5,681.9,238.4,680.2,238.1,678.6L238.1,678.6z"/>
		<path class="st0" d="M261.1,670.7c2-1.5,4.5-2.3,7-2.2c1.8-0.1,3.5,0.3,5.1,1c1.3,0.6,2.4,1.6,3.2,2.8c0.7,1.2,1.1,2.6,1.1,4
			c0,1.6-0.4,3.1-1.3,4.3c-0.8,1.1-1.9,1.9-3.2,2.4v0.2c1.5,0.4,2.8,1.3,3.7,2.6c0.9,1.4,1.4,3.1,1.3,4.8c0,1.5-0.4,3-1.1,4.4
			c-0.8,1.3-1.9,2.4-3.3,3c-4.2,1.8-9,1.3-12.7-1.2c-2-1.7-3.1-4.2-3.1-6.8h5.5c0,1.2,0.5,2.4,1.4,3.2c1,0.8,2.2,1.3,3.5,1.2
			c1.2,0.1,2.3-0.3,3.2-1.2c0.8-0.8,1.2-1.9,1.1-3c0.1-1.4-0.5-2.7-1.5-3.5c-1.5-0.8-3.1-1.2-4.8-1.1H265v-4.7h1.2
			c3.9,0,5.8-1.3,5.8-3.9c0.1-1-0.3-2-1-2.7c-0.8-0.7-1.9-1.1-3-1c-1.1-0.1-2.2,0.3-3,1c-0.7,0.7-1.1,1.6-1.2,2.6h-5.6
			C258.3,674.5,259.3,672.2,261.1,670.7z"/>
		<path class="st0" d="M285.1,672.6c1.7-2.7,4.5-4,8.5-4s6.8,1.3,8.5,4c1.7,2.7,2.5,6.3,2.5,11c0,4.7-0.9,8.4-2.5,11.1
			c-1.7,2.7-4.5,4-8.5,4s-6.8-1.3-8.5-4c-1.7-2.7-2.5-6.4-2.5-11.1C282.6,678.8,283.4,675.1,285.1,672.6z M298.6,678.6
			c-0.2-1.2-0.7-2.4-1.5-3.4c-2-1.7-4.9-1.7-6.9,0c-0.8,1-1.4,2.1-1.5,3.4c-0.3,1.7-0.4,3.4-0.4,5.1c0,1.7,0.1,3.5,0.4,5.2
			c0.2,1.3,0.7,2.4,1.5,3.4c2,1.7,4.9,1.7,6.9,0c0.8-1,1.4-2.1,1.5-3.4c0.3-1.7,0.4-3.5,0.4-5.2C299,681.9,298.9,680.2,298.6,678.6
			L298.6,678.6z"/>
		<path class="st0" d="M308.7,693.1v-4.5l13.3-19.1h6.6v18.6h3.6v5h-3.6v5.8H323v-5.8L308.7,693.1z M323.3,675.6l-8.3,12.5h8.4
			L323.3,675.6z"/>
		<path class="st0" d="M346.5,676.5c0-1.4,0.4-2.8,1.1-4c0.8-1.3,2-2.3,3.4-2.9c3.5-1.4,7.5-1.4,11,0c1.4,0.6,2.6,1.6,3.4,2.9
			c0.7,1.2,1.1,2.6,1.1,4c0,1.4-0.4,2.8-1.1,3.9c-0.7,1.1-1.7,2-2.9,2.6c1.4,0.6,2.7,1.6,3.6,2.9c0.9,1.3,1.3,2.9,1.3,4.4
			c0,1.7-0.5,3.4-1.4,4.8c-1,1.4-2.3,2.5-3.9,3.1c-1.7,0.8-3.6,1.1-5.5,1.1c-1.9,0-3.8-0.3-5.5-1.1c-1.6-0.7-2.9-1.8-3.8-3.2
			c-0.9-1.4-1.4-3.1-1.4-4.8c0-1.6,0.4-3.1,1.2-4.4c0.9-1.3,2.1-2.3,3.5-2.8C347.9,682,346.3,679.4,346.5,676.5z M352.7,686.8
			c-1,0.8-1.5,2.1-1.5,3.4c0,1.3,0.5,2.5,1.4,3.3c1.1,0.9,2.4,1.4,3.8,1.3c1.4,0.1,2.7-0.4,3.8-1.3c0.9-0.9,1.4-2.1,1.4-3.3
			c0.1-1.3-0.5-2.5-1.4-3.4c-1.1-0.8-2.4-1.3-3.8-1.2C355.1,685.5,353.8,686,352.7,686.8L352.7,686.8z M359.7,674.3
			c-0.9-0.8-2.1-1.2-3.3-1.1c-1.2-0.1-2.3,0.3-3.2,1.1c-0.8,0.8-1.3,2-1.2,3.1c0,1.1,0.4,2.2,1.2,2.9c0.9,0.8,2,1.2,3.2,1.1
			c1.2,0,2.3-0.4,3.2-1.1c0.9-0.8,1.3-1.9,1.3-3C361,676.2,360.6,675.1,359.7,674.3L359.7,674.3z"/>
		<path class="st0" d="M374.3,672.6c1.7-2.7,4.5-4,8.5-4s6.8,1.3,8.5,4c1.7,2.7,2.5,6.3,2.5,11c0,4.7-0.9,8.4-2.5,11.1
			c-1.7,2.7-4.5,4-8.5,4s-6.8-1.3-8.5-4c-1.7-2.7-2.5-6.4-2.5-11.1C371.8,678.8,372.6,675.1,374.3,672.6z M387.8,678.6
			c-0.2-1.2-0.7-2.4-1.5-3.4c-2-1.7-4.9-1.7-6.9,0c-0.8,1-1.4,2.1-1.5,3.4c-0.3,1.7-0.4,3.4-0.4,5.1c0,1.7,0.1,3.5,0.4,5.2
			c0.2,1.3,0.7,2.4,1.5,3.4c2,1.7,4.9,1.7,6.9,0c0.8-1,1.4-2.1,1.5-3.4c0.3-1.7,0.4-3.5,0.4-5.2
			C388.2,681.9,388.1,680.2,387.8,678.6L387.8,678.6z"/>
		<path class="st0" d="M399,676.5c0-1.4,0.4-2.8,1.1-4c0.8-1.3,2-2.3,3.4-2.9c3.5-1.4,7.5-1.4,11,0c1.4,0.6,2.6,1.6,3.4,2.9
			c0.7,1.2,1.1,2.6,1.1,4c0,1.4-0.4,2.8-1.1,3.9c-0.7,1.1-1.7,2-2.9,2.6c1.4,0.6,2.6,1.6,3.5,2.9c0.9,1.3,1.3,2.9,1.3,4.4
			c0,1.7-0.5,3.4-1.4,4.8c-1,1.4-2.3,2.5-3.9,3.2c-1.7,0.8-3.6,1.1-5.5,1.1c-1.9,0-3.8-0.3-5.5-1.1c-1.6-0.7-2.9-1.8-3.8-3.2
			c-0.9-1.4-1.4-3.1-1.4-4.8c0-1.6,0.4-3.1,1.3-4.5c0.9-1.3,2.1-2.3,3.5-2.8C400.5,682,398.9,679.4,399,676.5z M405.3,686.8
			c-1,0.8-1.5,2.1-1.5,3.4c0,1.3,0.5,2.5,1.4,3.3c1.1,0.9,2.4,1.4,3.8,1.3c1.4,0.1,2.7-0.4,3.8-1.3c0.9-0.9,1.4-2.1,1.4-3.3
			c0.1-1.3-0.5-2.5-1.4-3.4c-1.1-0.8-2.4-1.3-3.8-1.2C407.7,685.5,406.4,686,405.3,686.8L405.3,686.8z M412.3,674.3
			c-0.9-0.8-2.1-1.2-3.3-1.1c-1.2-0.1-2.3,0.3-3.2,1.1c-0.8,0.8-1.3,2-1.2,3.1c0,1.1,0.4,2.2,1.2,2.9c0.9,0.8,2,1.2,3.2,1.1
			c1.2,0,2.3-0.4,3.2-1.1c0.9-0.8,1.3-1.9,1.3-3C413.6,676.2,413.1,675.1,412.3,674.3L412.3,674.3z"/>
		<path class="st0" d="M426.1,692.4c2.6-2.2,4.7-4,6.2-5.4c1.5-1.4,2.8-2.9,3.9-4.5c1-1.4,1.5-3,1.5-4.7c0.1-1.2-0.3-2.3-1-3.3
			c-0.8-0.8-1.9-1.3-3-1.2c-1.2-0.1-2.4,0.4-3.1,1.4c-0.8,1.1-1.2,2.4-1.1,3.7H424c0.1-3.3,1.1-5.7,2.9-7.4c1.9-1.7,4.4-2.6,7-2.5
			c3.1,0,5.5,0.8,7.1,2.5c1.7,1.7,2.6,4.1,2.5,6.5c0,2.1-0.6,4.2-1.7,6.1c-1.1,1.8-2.4,3.5-3.9,5c-1.5,1.4-3.4,3.1-5.8,5.2h12v4.7
			H424v-4.2L426.1,692.4z"/>
		<path class="st2" d="M190.1,720.7c1.5-1.4,2.4-3.4,2.6-5.5c0.1-1-0.3-2-0.9-2.8c-0.7-0.8-1.8-1.2-2.9-1.1c-1.1-0.1-2.2,0.4-3,1.2
			c-0.7,0.9-1.2,2-1.2,3.2H183c0-1.6,0.6-3.2,1.7-4.4c2.3-2,5.8-2.1,8.2-0.2c1.1,1,1.6,2.5,1.5,3.9c-0.1,2.2-1,4.4-2.6,6
			c-1.9,2.1-4,4-6.3,5.6h9.4v1.5h-12.1V727C185.5,725.1,187.9,723,190.1,720.7z"/>
		<path class="st2" d="M199.5,711.2c1.2-0.9,2.7-1.4,4.2-1.3c1,0,2,0.2,2.9,0.6c0.8,0.4,1.4,0.9,1.9,1.7c0.4,0.7,0.6,1.5,0.6,2.4
			c0,1-0.3,2-0.9,2.8c-0.7,0.8-1.6,1.3-2.7,1.5v0.1c1.1,0.2,2.1,0.7,2.9,1.6c0.7,0.9,1.1,2,1.1,3.2c0,1.3-0.5,2.6-1.5,3.6
			c-1.2,1-2.7,1.5-4.2,1.4c-1.6,0.1-3.1-0.4-4.4-1.4c-1.2-1-1.9-2.4-2-3.9h1.7c0.1,1.1,0.6,2,1.4,2.8c0.9,0.7,2,1.1,3.2,1
			c1.1,0.1,2.2-0.3,3-1c0.7-0.7,1-1.6,1-2.6c0-2.6-1.9-3.9-5.6-3.9h-0.6V718h0.6c3.5,0,5.2-1.1,5.2-3.4c0-0.9-0.3-1.8-1-2.4
			c-0.8-0.6-1.8-1-2.8-0.9c-1,0-2,0.3-2.9,0.9c-0.8,0.6-1.3,1.5-1.3,2.5h-1.7C197.8,713.4,198.4,712,199.5,711.2z"/>
		<path class="st2" d="M224.2,711.7h-9.3v6.5c0.5-0.6,1.1-1.1,1.9-1.5c2-0.8,4.2-0.7,6.1,0.3c0.8,0.5,1.5,1.3,1.9,2.2
			c0.4,0.9,0.6,1.9,0.6,2.9c0,1.1-0.2,2.2-0.7,3.2c-0.4,0.9-1.2,1.7-2.1,2.3c-1.1,0.6-2.2,0.9-3.4,0.8c-1.5,0.1-3-0.4-4.2-1.4
			c-1.1-0.9-1.8-2.2-2-3.7h1.8c0.2,1,0.7,2,1.5,2.6c0.9,0.6,1.9,1,3,0.9c1.3,0.1,2.5-0.4,3.4-1.3c0.8-1,1.2-2.2,1.1-3.5
			c0.1-1.2-0.3-2.4-1.1-3.3c-0.9-0.8-2.1-1.3-3.3-1.2c-0.9,0-1.8,0.2-2.6,0.7c-0.7,0.4-1.3,1.1-1.7,1.9h-1.7v-10.1h11L224.2,711.7z"
			/>
		<path class="st2" d="M239.3,711.5l-7.1,16.8h-1.8l7.2-16.7h-10.2v-1.5h11.9L239.3,711.5z"/>
		<path class="st2" d="M241.1,711.8v-1.6h4.3v18.2h-1.8v-16.7H241.1z"/>
		<path class="st2" d="M248.6,724.1v-1.3l9.3-12.5h2.2v12.3h2.7v1.5H260v4.3h-1.8v-4.3L248.6,724.1z M258.3,712.2l-7.6,10.3h7.6
			V712.2z"/>
		<path class="st2" d="M264.1,711.8v-1.6h4.3v18.2h-1.8v-16.7H264.1z"/>
		<path class="st2" d="M284.3,711.3v1.5h-9.9v-1.5H284.3z"/>
		<path class="st2" d="M302.9,711.7h-9.3v6.5c0.5-0.6,1.1-1.1,1.9-1.5c2-0.9,4.2-0.7,6,0.3c0.8,0.5,1.5,1.3,1.9,2.2
			c0.4,0.9,0.6,1.9,0.6,2.9c0,1.1-0.2,2.2-0.7,3.2c-0.4,0.9-1.2,1.7-2.1,2.3c-1.1,0.6-2.2,0.9-3.5,0.8c-1.5,0.1-3-0.4-4.2-1.4
			c-1.1-0.9-1.8-2.2-2-3.7h1.8c0.2,1,0.7,2,1.5,2.6c0.9,0.6,1.9,1,3,0.9c1.3,0.1,2.5-0.4,3.4-1.3c0.8-1,1.2-2.2,1.1-3.5
			c0.1-1.2-0.3-2.4-1.1-3.3c-0.9-0.8-2.1-1.3-3.3-1.2c-0.9,0-1.8,0.2-2.6,0.7c-0.7,0.4-1.3,1.1-1.7,1.9h-1.7v-10.1h11L302.9,711.7z"
			/>
		<path class="st2" d="M306.3,724.1v-1.3l9.3-12.5h2.1v12.3h2.7v1.5h-2.7v4.3h-1.8v-4.3L306.3,724.1z M316,712.2l-7.6,10.3h7.6
			L316,712.2z"/>
		<path class="st2" d="M334.2,711.7h-9.3v6.5c0.5-0.6,1.1-1.1,1.9-1.5c2-0.8,4.2-0.7,6.1,0.3c0.8,0.5,1.5,1.3,1.9,2.2
			c0.4,0.9,0.6,1.9,0.6,2.9c0,1.1-0.2,2.2-0.7,3.2c-0.4,0.9-1.2,1.7-2.1,2.3c-1.1,0.6-2.2,0.9-3.5,0.8c-1.5,0.1-3-0.4-4.2-1.4
			c-1.1-0.9-1.8-2.2-2-3.7h1.8c0.2,1,0.7,2,1.5,2.6c0.9,0.6,1.9,1,3,0.9c1.3,0.1,2.5-0.4,3.3-1.3c0.8-1,1.2-2.2,1.1-3.5
			c0.1-1.2-0.3-2.4-1.1-3.3c-0.9-0.8-2.1-1.3-3.3-1.2c-0.9,0-1.8,0.2-2.6,0.7c-0.7,0.4-1.3,1.1-1.6,1.9h-1.7v-10.1h11L334.2,711.7z"
			/>
		<path class="st2" d="M340.1,711.2c1.2-0.9,2.7-1.4,4.2-1.3c1,0,2,0.2,2.9,0.6c0.8,0.4,1.4,0.9,1.8,1.7c0.4,0.7,0.6,1.5,0.6,2.4
			c0,1-0.3,2-1,2.8c-0.7,0.8-1.6,1.3-2.7,1.5v0.1c1.1,0.2,2.1,0.7,2.9,1.6c0.7,0.9,1.1,2,1.1,3.2c0,1.3-0.5,2.7-1.5,3.6
			c-1.2,1-2.7,1.5-4.2,1.4c-1.6,0.1-3.1-0.4-4.4-1.4c-1.2-1-1.9-2.4-2-3.9h1.7c0.1,1.1,0.6,2,1.4,2.8c0.9,0.7,2,1.1,3.2,1
			c1.1,0.1,2.2-0.3,3-1c0.7-0.7,1-1.6,1-2.6c0-2.6-1.9-3.9-5.6-3.9h-0.6V718h0.6c3.5,0,5.2-1.1,5.2-3.4c0-0.9-0.3-1.8-1-2.4
			c-0.8-0.6-1.8-1-2.8-0.9c-1,0-2,0.3-2.9,0.9c-0.8,0.6-1.3,1.5-1.3,2.5h-1.7C338.4,713.4,339,712,340.1,711.2z"/>
		<path class="st2" d="M364.8,711.7h-9.3v6.5c0.5-0.6,1.1-1.1,1.9-1.5c2-0.8,4.2-0.7,6.1,0.3c0.8,0.5,1.5,1.3,1.9,2.2
			c0.4,0.9,0.6,1.9,0.6,2.9c0,1.1-0.2,2.2-0.7,3.2c-0.4,0.9-1.2,1.7-2.1,2.3c-1.1,0.6-2.2,0.9-3.5,0.8c-1.5,0.1-3-0.4-4.2-1.4
			c-1.1-0.9-1.8-2.2-2-3.7h1.8c0.2,1,0.7,2,1.5,2.6c0.9,0.6,1.9,1,3,0.9c1.3,0.1,2.5-0.4,3.3-1.3c0.8-1,1.2-2.2,1.1-3.5
			c0.1-1.2-0.3-2.4-1.1-3.3c-0.9-0.8-2.1-1.3-3.3-1.2c-0.9,0-1.8,0.2-2.6,0.7c-0.7,0.4-1.3,1.1-1.6,1.9h-1.7v-10.1h11L364.8,711.7z"
			/>
		<path class="st2" d="M370.7,711.2c1.2-0.9,2.7-1.4,4.2-1.3c1,0,2,0.2,2.9,0.6c0.8,0.4,1.4,0.9,1.8,1.7c0.4,0.7,0.6,1.5,0.6,2.4
			c0,1-0.3,2-0.9,2.8c-0.7,0.8-1.6,1.3-2.7,1.5v0.1c1.1,0.2,2.1,0.7,2.9,1.6c0.7,0.9,1.1,2,1.1,3.2c0,1.3-0.5,2.7-1.5,3.6
			c-1.2,1-2.7,1.5-4.2,1.4c-1.6,0.1-3.1-0.4-4.4-1.4c-1.2-1-1.9-2.4-2-3.9h1.7c0.1,1.1,0.6,2,1.4,2.8c0.9,0.7,2,1.1,3.2,1
			c1.1,0.1,2.2-0.3,3-1c0.7-0.7,1-1.6,1-2.6c0-2.6-1.9-3.9-5.6-3.9h-0.6V718h0.6c3.5,0,5.2-1.1,5.2-3.4c0-0.9-0.3-1.8-1-2.4
			c-0.8-0.6-1.8-1-2.8-0.9c-1,0-2,0.3-2.9,0.9c-0.8,0.6-1.3,1.5-1.3,2.5h-1.7C368.9,713.4,369.6,712,370.7,711.2z"/>
		<path class="st2" d="M385.6,711.2c1.2-0.9,2.7-1.4,4.2-1.3c1,0,2,0.2,2.9,0.6c0.8,0.4,1.4,0.9,1.8,1.7c0.4,0.7,0.6,1.5,0.6,2.4
			c0,1-0.3,2-0.9,2.8c-0.7,0.8-1.6,1.3-2.7,1.5v0.1c1.1,0.2,2.1,0.7,2.9,1.6c0.7,0.9,1.1,2,1.1,3.2c0,1.3-0.5,2.7-1.5,3.6
			c-1.2,1-2.7,1.5-4.2,1.4c-1.6,0.1-3.1-0.4-4.4-1.4c-1.2-1-1.9-2.4-2-3.9h1.7c0.1,1.1,0.6,2,1.4,2.8c0.9,0.7,2,1.1,3.1,1
			c1.1,0.1,2.2-0.3,3-1c0.7-0.7,1-1.6,1-2.6c0-2.6-1.9-3.9-5.6-3.9h-0.6V718h0.6c3.5,0,5.2-1.1,5.2-3.4c0-0.9-0.3-1.8-1-2.4
			c-0.8-0.6-1.8-1-2.8-0.9c-1,0-2,0.3-2.9,0.9c-0.8,0.6-1.3,1.5-1.3,2.5h-1.7C383.8,713.4,384.5,712,385.6,711.2z"/>
		<path class="st2" d="M587.2,693.3c1.1-2,2.8-3.6,4.8-4.8c2.1-1.2,4.4-1.7,6.8-1.7c2.7-0.1,5.4,0.7,7.7,2.2
			c2.2,1.5,3.8,3.7,4.6,6.2h-6c-0.5-1.2-1.4-2.2-2.5-2.8c-1.1-0.6-2.5-1-3.8-0.9c-1.4,0-2.8,0.3-4.1,1.1c-1.2,0.7-2.2,1.8-2.8,3
			c-1.3,2.9-1.3,6.2,0,9.2c0.6,1.2,1.6,2.3,2.8,3c1.2,0.7,2.6,1.1,4.1,1.1c1.3,0,2.6-0.3,3.8-1c1.1-0.7,2-1.7,2.5-2.8h6
			c-0.8,2.5-2.4,4.7-4.6,6.2c-2.3,1.5-5,2.3-7.7,2.2c-2.4,0-4.7-0.6-6.8-1.7c-2-1.1-3.6-2.8-4.8-4.8c-2.3-4.3-2.3-9.5,0-13.8
			L587.2,693.3z"/>
		<path class="st2" d="M623.5,693.2c1.1-0.6,2.4-1,3.7-0.9v5.5h-1.4c-1.3-0.1-2.7,0.3-3.7,1.2c-0.8,0.8-1.3,2.1-1.3,4.1v10.4h-5.3
			v-20.8h5.3v3.2C621.4,694.7,622.4,693.8,623.5,693.2z"/>
		<path class="st2" d="M630.6,697.3c1.5-3.1,4.7-5.1,8.2-5.1c1.4,0,2.8,0.3,4.1,0.9c1.1,0.6,2.1,1.4,2.8,2.4v-3h5.3v20.9h-5.3v-3
			c-0.7,1-1.7,1.8-2.8,2.4c-1.3,0.7-2.7,1-4.1,1c-1.7,0-3.4-0.5-4.8-1.3c-1.5-0.9-2.6-2.3-3.4-3.8c-0.9-1.8-1.3-3.7-1.3-5.7
			C629.3,701,629.8,699.1,630.6,697.3z M645,699.7c-0.5-0.9-1.1-1.6-2-2.1c-1.7-1-3.8-1-5.5,0c-0.8,0.5-1.5,1.2-2,2.1
			c-0.5,1-0.8,2.1-0.8,3.2c0,1.1,0.2,2.3,0.8,3.3c0.5,0.9,1.1,1.6,2,2.2c0.8,0.5,1.7,0.8,2.7,0.8c1,0,1.9-0.3,2.7-0.7
			c0.9-0.5,1.5-1.2,2-2.1C646,704.2,646,701.8,645,699.7L645,699.7z"/>
		<path class="st2" d="M656.2,712.8c-1.2-1.2-1.2-3.1,0-4.4c0,0,0,0,0,0c0.6-0.6,1.5-0.9,2.3-0.9c0.9,0,1.7,0.3,2.3,0.9
			c1.2,1.2,1.2,3.2,0,4.4c-0.6,0.6-1.4,0.9-2.3,0.9C657.7,713.7,656.8,713.4,656.2,712.8z"/>
		<path class="st2" d="M673.7,690.9V686h9v27.4h-5.4v-22.5H673.7z"/>
		<path class="st2" d="M687.3,690.9V686h9v27.4h-5.4v-22.5H687.3z"/>
		<path class="st2" d="M734.2,696.5l-1.2,5.8h4.8v4.7h-5.8l-1.3,6.4h-5l1.3-6.4h-6.8l-1.3,6.4h-5l1.3-6.4h-5.7v-4.7h6.7l1.2-5.8
			h-5.6v-4.7h6.7l1.3-6.2h5l-1.3,6.2h6.8l1.3-6.2h5l-1.3,6.2h4.8v4.7L734.2,696.5z M729.2,696.5h-6.8l-1.2,5.8h6.8L729.2,696.5z"/>
		<path class="st2" d="M756.7,690.5c-0.8-0.6-1.7-0.9-2.7-0.8c-1.6-0.1-3,0.7-3.8,2.1c-0.8,1.4-1.2,3.7-1.3,6.8
			c0.6-1,1.5-1.8,2.6-2.3c1.2-0.6,2.5-0.9,3.8-0.8c1.5,0,3,0.3,4.3,1c1.3,0.7,2.3,1.8,2.9,3.1c1.4,3,1.4,6.5,0,9.6
			c-0.7,1.4-1.8,2.5-3.1,3.2c-3.5,1.7-7.7,1.5-11.1-0.6c-1.5-1.2-2.6-2.9-3.1-4.8c-0.6-2.5-0.9-5.1-0.9-7.7c0-4.6,0.8-8,2.4-10.4
			c1.6-2.3,4.1-3.5,7.5-3.5c2.2-0.1,4.5,0.6,6.1,2.1c1.4,1.4,2.3,3.3,2.5,5.3H758C757.8,691.9,757.4,691.1,756.7,690.5z
			 M750.8,700.8c-0.9,0.9-1.4,2.1-1.3,3.4c-0.2,2.4,1.5,4.6,4,4.8c0.3,0,0.6,0,0.9,0c1.2,0.1,2.4-0.4,3.2-1.2
			c0.8-0.9,1.2-2.1,1.2-3.3c0.1-1.3-0.3-2.5-1.1-3.5c-0.9-0.9-2.1-1.4-3.4-1.3C752.9,699.7,751.7,700.1,750.8,700.8z"/>
		<path class="st2" d="M780.7,690.5c-0.8-0.6-1.7-0.9-2.7-0.8c-1.6-0.1-3,0.7-3.8,2.1c-0.8,1.4-1.2,3.7-1.2,6.8
			c0.6-1,1.5-1.8,2.6-2.3c1.2-0.6,2.5-0.9,3.8-0.8c1.5,0,3,0.3,4.3,1c1.3,0.7,2.3,1.8,2.9,3.1c1.4,3,1.4,6.5,0,9.6
			c-0.7,1.4-1.8,2.5-3.1,3.2c-3.5,1.7-7.7,1.5-11.1-0.6c-1.5-1.2-2.6-2.9-3.1-4.8c-0.6-2.5-0.9-5.1-0.9-7.7c0-4.6,0.8-8,2.4-10.4
			c1.6-2.3,4.1-3.5,7.5-3.5c2.2-0.1,4.5,0.6,6.1,2.1c1.4,1.4,2.3,3.3,2.5,5.3H782C781.8,691.9,781.4,691.1,780.7,690.5z
			 M774.9,700.8c-0.9,0.9-1.4,2.1-1.4,3.4c-0.2,2.4,1.6,4.6,4,4.8c0.3,0,0.6,0,0.8,0c1.2,0.1,2.4-0.4,3.2-1.2
			c0.8-0.9,1.2-2.1,1.2-3.3c0.1-1.3-0.3-2.5-1.2-3.5c-0.9-0.9-2.1-1.4-3.4-1.3C777,699.7,775.8,700.1,774.9,700.8z"/>
		<path class="st2" d="M808.5,697.8v4.4h-15.9v-4.4H808.5z"/>
		<path class="st2" d="M832.2,690.6H820v6.4c0.6-0.7,1.4-1.3,2.3-1.6c1-0.4,2-0.6,3.1-0.6c1.7-0.1,3.5,0.4,4.9,1.3
			c1.2,0.8,2.2,2,2.8,3.4c0.6,1.4,0.9,2.9,0.9,4.4c0.1,2.5-0.8,5-2.5,7c-1.6,1.8-4,2.6-7,2.6c-2.5,0.1-4.9-0.6-6.8-2.1
			c-1.7-1.4-2.7-3.4-2.9-5.6h5.1c0.2,1,0.7,1.8,1.5,2.4c0.9,0.6,1.9,0.9,3,0.9c1.3,0.1,2.5-0.4,3.3-1.4c0.8-1.1,1.2-2.4,1.1-3.7
			c0.1-1.3-0.3-2.6-1.2-3.6c-0.9-0.9-2.1-1.3-3.4-1.2c-1.9-0.1-3.6,1.1-4.1,2.9h-5v-16.1h17L832.2,690.6z"/>
		<path class="st2" d="M840.7,687.4c1.9-1.4,4.2-2.1,6.5-2c1.6,0,3.2,0.3,4.7,1c1.2,0.6,2.2,1.5,2.9,2.6c0.7,1.1,1,2.4,1,3.7
			c0,1.4-0.4,2.8-1.2,4c-0.7,1-1.7,1.8-2.9,2.2v0.1c1.4,0.4,2.6,1.2,3.4,2.4c0.9,1.3,1.3,2.9,1.2,4.4c0,1.4-0.3,2.8-1,4
			c-0.7,1.2-1.7,2.2-3,2.8c-3.8,1.7-8.3,1.2-11.7-1.1c-1.8-1.6-2.9-3.9-2.8-6.3h5.1c0,1.1,0.5,2.2,1.3,2.9c0.9,0.8,2.1,1.2,3.2,1.1
			c1.1,0.1,2.2-0.3,3-1.1c0.7-0.7,1.1-1.7,1-2.8c0.1-1.2-0.4-2.5-1.4-3.2c-1.4-0.8-2.9-1.1-4.4-1h-1.1v-4.3h1.1
			c3.6,0,5.3-1.2,5.3-3.6c0-0.9-0.3-1.9-1-2.5c-0.8-0.6-1.8-1-2.8-0.9c-1-0.1-2,0.3-2.7,1c-0.6,0.7-1,1.5-1.1,2.4h-5.2
			C838.1,691,839,688.9,840.7,687.4z"/>
	</g>
</g>
</svg>
